<svg width="0" height="0" class="hidden">
  <symbol fill="none" xmlns="http://www.w3.org/2000/svg" viewBox="0 0 11 21" id="facebook">
    <path d="M2.91513 20.7631V11.1316H0.368347V7.66377H2.91513V4.7018C2.91513 2.37426 4.41952 0.236816 7.88597 0.236816C9.28947 0.236816 10.3273 0.371366 10.3273 0.371366L10.2455 3.60972C10.2455 3.60972 9.18711 3.59942 8.03211 3.59942C6.78206 3.59942 6.58179 4.17549 6.58179 5.13162V7.66377H10.3449L10.1812 11.1316H6.58179V20.7631H2.91513Z" fill="#363853"></path>
  </symbol>
  <symbol fill="none" xmlns="http://www.w3.org/2000/svg" viewBox="0 0 20 20" id="instagram">
    <path d="M9.98447 6.7618C8.19413 6.7618 6.73309 8.22285 6.73309 10.0132C6.73309 11.8035 8.19413 13.2646 9.98447 13.2646C11.7748 13.2646 13.2359 11.8035 13.2359 10.0132C13.2359 8.22285 11.7748 6.7618 9.98447 6.7618ZM19.7362 10.0132C19.7362 8.66677 19.7484 7.33256 19.6728 5.98859C19.5972 4.42753 19.241 3.0421 18.0995 1.90058C16.9556 0.756617 15.5726 0.40294 14.0115 0.327327C12.6651 0.251713 11.3309 0.263909 9.98691 0.263909C8.6405 0.263909 7.30628 0.251713 5.96231 0.327327C4.40126 0.40294 3.01582 0.759056 1.8743 1.90058C0.730341 3.04454 0.376665 4.42753 0.301051 5.98859C0.225438 7.335 0.237633 8.66921 0.237633 10.0132C0.237633 11.3572 0.225438 12.6938 0.301051 14.0378C0.376665 15.5988 0.732781 16.9843 1.8743 18.1258C3.01826 19.2697 4.40126 19.6234 5.96231 19.699C7.30872 19.7747 8.64294 19.7625 9.98691 19.7625C11.3333 19.7625 12.6675 19.7747 14.0115 19.699C15.5726 19.6234 16.958 19.2673 18.0995 18.1258C19.2435 16.9818 19.5972 15.5988 19.6728 14.0378C19.7508 12.6938 19.7362 11.3596 19.7362 10.0132ZM9.98447 15.0159C7.21604 15.0159 4.98178 12.7816 4.98178 10.0132C4.98178 7.24475 7.21604 5.01049 9.98447 5.01049C12.7529 5.01049 14.9872 7.24475 14.9872 10.0132C14.9872 12.7816 12.7529 15.0159 9.98447 15.0159ZM15.1921 5.97395C14.5457 5.97395 14.0237 5.45198 14.0237 4.8056C14.0237 4.15923 14.5457 3.63725 15.1921 3.63725C15.8384 3.63725 16.3604 4.15923 16.3604 4.8056C16.3606 4.95909 16.3305 5.1111 16.2719 5.25294C16.2132 5.39478 16.1272 5.52365 16.0186 5.63218C15.9101 5.74071 15.7812 5.82676 15.6394 5.88541C15.4976 5.94406 15.3455 5.97415 15.1921 5.97395Z" fill="#363853"></path>
  </symbol>
  <symbol fill="none" xmlns="http://www.w3.org/2000/svg" viewBox="0 0 17 21" id="pinterset">
    <path d="M0.289593 7.59959C0.289593 6.71215 0.444723 5.87375 0.750422 5.09126C1.04249 4.33123 1.47643 3.63368 2.02911 3.03577C2.58066 2.44572 3.21183 1.93549 3.90437 1.51983C4.61491 1.08997 5.38415 0.765672 6.18798 0.557104C7.00152 0.343482 7.83923 0.235749 8.68034 0.236577C9.97956 0.236577 11.1887 0.511478 12.3099 1.059C13.4166 1.59653 14.3585 2.42146 15.0373 3.44756C15.7377 4.49127 16.0856 5.67186 16.0856 6.98819C16.0856 7.77753 16.008 8.54976 15.8494 9.30488C15.6938 10.0596 15.4463 10.7924 15.1126 11.487C14.7945 12.1594 14.3786 12.7809 13.8784 13.3314C13.3756 13.8732 12.7668 14.3057 12.0898 14.6021C11.3548 14.9243 10.5596 15.0864 9.75713 15.0778C9.19935 15.0778 8.6427 14.9466 8.0929 14.6831C7.5431 14.4208 7.14843 14.0603 6.91117 13.5984C6.8279 13.9189 6.71383 14.382 6.56212 14.9877C6.41612 15.5922 6.31802 15.9824 6.27467 16.1592C6.22905 16.3348 6.14464 16.628 6.02145 17.034C5.9379 17.3344 5.83072 17.6277 5.70092 17.9112L5.30853 18.68C5.13883 19.0099 4.94913 19.3292 4.74048 19.6359C4.53402 19.9348 4.27851 20.2918 3.97395 20.7024L3.80399 20.7629L3.69106 20.6397C3.56901 19.3473 3.50627 18.5739 3.50627 18.3184C3.50627 17.5622 3.59639 16.7135 3.77433 15.7713C3.94885 14.8303 4.2249 13.6474 4.59561 12.225C4.96633 10.8037 5.17849 9.96761 5.23553 9.72009C4.97431 9.18739 4.842 8.49159 4.842 7.63609C4.842 6.95283 5.0553 6.31291 5.48305 5.71064C5.91194 5.11065 6.45376 4.81065 7.11078 4.81065C7.61382 4.81065 8.00393 4.97719 8.28339 5.31141C8.56399 5.64448 8.70087 6.06425 8.70087 6.57641C8.70087 7.11936 8.52065 7.90528 8.15792 8.93303C7.79518 9.96191 7.61496 10.7296 7.61496 11.2395C7.61496 11.7562 7.79975 12.1885 8.16932 12.5273C8.53405 12.8662 9.01637 13.0499 9.51417 13.0394C9.96587 13.0394 10.3845 12.9368 10.7735 12.7303C11.1564 12.5299 11.4878 12.2438 11.7419 11.8942C12.2954 11.1349 12.6899 10.2716 12.902 9.35621C13.0115 8.87485 13.0959 8.41744 13.1483 7.98741C13.2042 7.5551 13.2282 7.14674 13.2282 6.75891C13.2282 5.3365 12.7765 4.22777 11.8788 3.43387C10.9765 2.63996 9.80162 2.24529 8.35639 2.24529C6.71269 2.24529 5.33819 2.77684 4.23744 3.84337C3.13556 4.90647 2.58119 6.25816 2.58119 7.8973C2.58119 8.25889 2.63595 8.60793 2.73975 8.94557C2.84127 9.28207 2.95191 9.55013 3.07168 9.7486C3.19031 9.94366 3.3021 10.1341 3.40361 10.3098C3.50628 10.4855 3.55989 10.6109 3.55989 10.6862C3.55989 10.9166 3.49943 11.2166 3.37738 11.5874C3.25077 11.9581 3.10134 12.1429 2.92111 12.1429C2.904 12.1429 2.83328 12.1303 2.71009 12.1041C2.28344 11.9767 1.89813 11.7386 1.59338 11.414C1.26993 11.0775 1.01466 10.6817 0.841676 10.2482C0.669181 9.8163 0.534831 9.37012 0.440161 8.91477C0.337879 8.48392 0.287333 8.04241 0.289593 7.59959Z" fill="#363853"></path>
  </symbol>
  <symbol fill="none" xmlns="http://www.w3.org/2000/svg" viewBox="0 0 21 17" id="twitter">
    <path d="M20.7632 2.27041C20.0084 2.59603 19.1869 2.83037 18.3408 2.92165C19.2193 2.39976 19.8771 1.57526 20.1909 0.602846C19.3666 1.09322 18.4635 1.43708 17.5218 1.61917C17.1282 1.1984 16.6522 0.863192 16.1234 0.634439C15.5946 0.405686 15.0244 0.288288 14.4482 0.289561C12.1171 0.289561 10.2423 2.17914 10.2423 4.49794C10.2423 4.82356 10.2818 5.14917 10.3459 5.46246C6.85536 5.27992 3.74224 3.61235 1.67259 1.05921C1.29548 1.70333 1.09786 2.43674 1.10029 3.18313C1.10029 4.64348 1.8428 5.93115 2.97507 6.68846C2.3078 6.66218 1.65617 6.47878 1.07316 6.15317V6.20497C1.07316 8.24995 2.51871 9.94465 4.44528 10.3344C4.08355 10.4284 3.71143 10.4764 3.33769 10.4775C3.06387 10.4775 2.80486 10.4503 2.54337 10.4133C3.0762 12.0809 4.62783 13.2921 6.47547 13.3316C5.02992 14.4638 3.21928 15.1299 1.25323 15.1299C0.90048 15.1299 0.574861 15.1175 0.236908 15.0781C2.10182 16.2745 4.31454 16.9652 6.69748 16.9652C14.4334 16.9652 18.6664 10.5564 18.6664 4.99377C18.6664 4.81122 18.6664 4.62868 18.6541 4.44613C19.4731 3.8467 20.1909 3.10419 20.7632 2.27041Z" fill="#363853"></path>
  </symbol>
</svg>