<svg width="0" height="0" class="hidden">
  <symbol fill="none" xmlns="http://www.w3.org/2000/svg" viewBox="0 0 23 18" id="quotes_down">
    <path d="M5.52 9C6.69333 9.10666 7.65333 9.56 8.4 10.36C9.14667 11.16 9.52 12.1733 9.52 13.4C9.52 14.7333 9.12 15.8267 8.32 16.68C7.52 17.48 6.50667 17.88 5.28 17.88C3.89333 17.88 2.77333 17.3733 1.92 16.36C1.12 15.3467 0.72 13.7733 0.72 11.64C0.72 7.53333 2.08 3.98666 4.8 0.999996C5.33333 0.466663 5.94667 0.199997 6.64 0.199997C7.22667 0.199997 7.73333 0.413331 8.16 0.839998C8.58667 1.21333 8.8 1.66666 8.8 2.2C8.8 2.78666 8.58667 3.29333 8.16 3.72C6.77333 5.16 5.89333 6.92 5.52 9ZM18.8 9C19.9733 9.10666 20.9333 9.56 21.68 10.36C22.4267 11.16 22.8 12.1733 22.8 13.4C22.8 14.7333 22.4 15.8267 21.6 16.68C20.8 17.48 19.7867 17.88 18.56 17.88C17.1733 17.88 16.0533 17.3733 15.2 16.36C14.4 15.3467 14 13.7733 14 11.64C14 7.53333 15.36 3.98666 18.08 0.999996C18.6133 0.466663 19.2267 0.199997 19.92 0.199997C20.5067 0.199997 21.0133 0.413331 21.44 0.839998C21.8667 1.21333 22.08 1.66666 22.08 2.2C22.08 2.78666 21.8667 3.29333 21.44 3.72C20.0533 5.16 19.1733 6.92 18.8 9Z" fill="#DDDDDD"></path>
  </symbol>
  <symbol fill="none" xmlns="http://www.w3.org/2000/svg" viewBox="0 0 23 18" id="quotes_up">
    <path d="M17.48 9C16.3067 9.10666 15.3467 9.56 14.6 10.36C13.8533 11.16 13.48 12.1733 13.48 13.4C13.48 14.7333 13.88 15.8267 14.68 16.68C15.48 17.48 16.4933 17.88 17.72 17.88C19.1067 17.88 20.2267 17.3733 21.08 16.36C21.88 15.3467 22.28 13.7733 22.28 11.64C22.28 7.53333 20.92 3.98666 18.2 0.999996C17.6667 0.466663 17.0533 0.199997 16.36 0.199997C15.7733 0.199997 15.2667 0.413331 14.84 0.839998C14.4133 1.21333 14.2 1.66666 14.2 2.2C14.2 2.78666 14.4133 3.29333 14.84 3.72C16.2267 5.16 17.1067 6.92 17.48 9ZM4.2 9C3.02667 9.10666 2.06667 9.56 1.32 10.36C0.573333 11.16 0.199999 12.1733 0.199999 13.4C0.199999 14.7333 0.599999 15.8267 1.4 16.68C2.2 17.48 3.21333 17.88 4.44 17.88C5.82667 17.88 6.94667 17.3733 7.8 16.36C8.6 15.3467 9 13.7733 9 11.64C9 7.53333 7.64 3.98666 4.92 0.999996C4.38667 0.466663 3.77333 0.199997 3.08 0.199997C2.49333 0.199997 1.98667 0.413331 1.56 0.839998C1.13333 1.21333 0.92 1.66666 0.92 2.2C0.92 2.78666 1.13333 3.29333 1.56 3.72C2.94666 5.16 3.82666 6.92 4.2 9Z" fill="#DDDDDD"></path>
  </symbol>
</svg>