<svg width="0" height="0" class="hidden">
  <symbol fill="none" xmlns="http://www.w3.org/2000/svg" viewBox="0 0 14 13" id="arrow_button">
    <path d="M8.121 0.293C7.93353 0.480528 7.82821 0.734836 7.82821 1C7.82821 1.26516 7.93353 1.51947 8.121 1.707L11.413 5L1 5.007C0.734784 5.007 0.48043 5.11236 0.292893 5.29989C0.105357 5.48743 0 5.74178 0 6.007C0 6.27222 0.105357 6.52657 0.292893 6.71411C0.48043 6.90164 0.734784 7.007 1 7.007L11.414 7L8.121 10.293C8.02549 10.3852 7.94931 10.4956 7.8969 10.6176C7.84449 10.7396 7.8169 10.8708 7.81575 11.0036C7.8146 11.1364 7.8399 11.2681 7.89018 11.391C7.94046 11.5138 8.01471 11.6255 8.10861 11.7194C8.2025 11.8133 8.31415 11.8875 8.43705 11.9378C8.55994 11.9881 8.69162 12.0134 8.8244 12.0123C8.95718 12.0111 9.0884 11.9835 9.2104 11.9311C9.33241 11.8787 9.44275 11.8025 9.535 11.707L13.121 8.122C13.3996 7.84342 13.6207 7.51268 13.7715 7.14867C13.9222 6.78466 13.9999 6.39451 13.9999 6.0005C13.9999 5.60649 13.9222 5.21634 13.7715 4.85233C13.6207 4.48832 13.3996 4.15758 13.121 3.879L9.535 0.293C9.34747 0.105529 9.09316 0.000213623 8.828 0.000213623C8.56284 0.000213623 8.30853 0.105529 8.121 0.293Z" fill="white"></path>
  </symbol>
  <symbol fill="none" xmlns="http://www.w3.org/2000/svg" viewBox="0 0 17 16" id="message_button">
    <path d="M10.525 14.3001C10.28 14.3001 10.0538 14.1616 9.94328 13.9406L8.01408 10.0822C7.90813 9.87034 7.92633 9.61684 8.06088 9.42119L11.175 5.20009L6.95328 8.31359C6.75763 8.44879 6.50413 8.46569 6.29223 8.36039L2.43448 6.43184C2.20308 6.31549 2.06203 6.07304 2.07633 5.81434C2.08998 5.55564 2.25703 5.32944 2.50013 5.24039L14.8501 0.690388C15.0874 0.603938 15.3545 0.660488 15.5346 0.840538C15.714 1.01929 15.7725 1.28709 15.6847 1.52499L11.1347 13.875C11.045 14.1181 10.8195 14.2851 10.5608 14.2988C10.5491 14.2994 10.5367 14.3001 10.525 14.3001Z" fill="white"></path>
  </symbol>
</svg>