<svg width="0" height="0" class="hidden">
  <symbol fill="none" xmlns="http://www.w3.org/2000/svg" viewBox="0 0 35 37" id="delivery01">
    <path d="M26.6875 32.1875H23.625V23.3987C23.8956 23.343 24.1507 23.2292 24.3729 23.065C24.595 22.9008 24.7786 22.6902 24.9111 22.4478C25.0436 22.2055 25.1218 21.9371 25.1401 21.6615C25.1585 21.3859 25.1166 21.1097 25.0173 20.8519L23.625 17.231V10.3125C23.625 10.255 23.6137 10.1981 23.5917 10.1451C23.5697 10.092 23.5375 10.0437 23.4969 10.0031C23.4563 9.96248 23.408 9.93025 23.3549 9.90827C23.3019 9.88629 23.245 9.87498 23.1875 9.875H4.8125C4.75504 9.87498 4.69815 9.88629 4.64506 9.90827C4.59197 9.93025 4.54374 9.96248 4.50311 10.0031C4.46248 10.0437 4.43025 10.092 4.40827 10.1451C4.38629 10.1981 4.37498 10.255 4.375 10.3125V17.231L2.98266 20.8519C2.88344 21.1097 2.84155 21.3859 2.85989 21.6615C2.87823 21.9371 2.95636 22.2055 3.08886 22.4478C3.22136 22.6902 3.40504 22.9008 3.62715 23.065C3.84925 23.2292 4.10445 23.343 4.375 23.3987V32.1875H1.3125C1.25504 32.1875 1.19814 32.1988 1.14506 32.2208C1.09197 32.2428 1.04374 32.275 1.00311 32.3156C0.962479 32.3562 0.930253 32.4045 0.908272 32.4576C0.886291 32.5106 0.874985 32.5675 0.875 32.625V35.6875C0.874985 35.745 0.886291 35.8019 0.908272 35.8549C0.930253 35.908 0.962479 35.9563 1.00311 35.9969C1.04374 36.0375 1.09197 36.0697 1.14506 36.0917C1.19814 36.1137 1.25504 36.125 1.3125 36.125H26.6875C26.745 36.125 26.8019 36.1137 26.8549 36.0917C26.908 36.0697 26.9563 36.0375 26.9969 35.9969C27.0375 35.9563 27.0697 35.908 27.0917 35.8549C27.1137 35.8019 27.125 35.745 27.125 35.6875V32.625C27.125 32.5675 27.1137 32.5106 27.0917 32.4576C27.0697 32.4045 27.0375 32.3562 26.9969 32.3156C26.9563 32.275 26.908 32.2428 26.8549 32.2208C26.8019 32.1988 26.745 32.1875 26.6875 32.1875ZM21.875 32.1875V22.8562C22.1144 23.1043 22.4169 23.2826 22.75 23.3719V32.1875H21.875ZM18.375 32.625V35.25H16.625V32.1875H17.5C17.616 32.1875 17.7273 32.1414 17.8094 32.0594C17.8914 31.9773 17.9375 31.866 17.9375 31.75V30.4375C17.9375 30.3215 17.8914 30.2102 17.8094 30.1281C17.7273 30.0461 17.616 30 17.5 30H14.875C14.759 30 14.6477 30.0461 14.5656 30.1281C14.4836 30.2102 14.4375 30.3215 14.4375 30.4375V31.75C14.4375 31.866 14.4836 31.9773 14.5656 32.0594C14.6477 32.1414 14.759 32.1875 14.875 32.1875H15.75V35.25H14V32.625C14 32.5675 13.9887 32.5106 13.9667 32.4576C13.9447 32.4045 13.9125 32.3562 13.8719 32.3156C13.8313 32.275 13.783 32.2428 13.7299 32.2208C13.6769 32.1988 13.62 32.1875 13.5625 32.1875H12.6875V30.875C12.6875 30.8175 12.6762 30.7606 12.6542 30.7076C12.6322 30.6545 12.6 30.6062 12.5594 30.5656C12.5188 30.525 12.4705 30.4928 12.4174 30.4708C12.3644 30.4488 12.3075 30.4375 12.25 30.4375H11.375V23.3976C11.7991 23.3098 12.1805 23.0798 12.4562 22.7457C12.483 22.7791 12.5114 22.8113 12.5415 22.843C12.7186 23.0317 12.9326 23.1818 13.1703 23.2841C13.408 23.3863 13.6642 23.4386 13.9229 23.4375H14.0771C14.3358 23.4386 14.592 23.3863 14.8297 23.2841C15.0674 23.1818 15.2814 23.0317 15.4585 22.843C15.4886 22.8113 15.517 22.7791 15.5438 22.7457C15.607 22.8218 15.6759 22.893 15.75 22.9586V24.3125C15.17 24.3131 14.614 24.5437 14.2038 24.9538C13.7937 25.364 13.5631 25.92 13.5625 26.5C13.5625 26.5575 13.5738 26.6144 13.5958 26.6674C13.6178 26.7205 13.65 26.7688 13.6906 26.8094C13.7312 26.85 13.7795 26.8822 13.8326 26.9042C13.8856 26.9262 13.9425 26.9375 14 26.9375H18.375C18.4325 26.9375 18.4894 26.9262 18.5424 26.9042C18.5955 26.8822 18.6438 26.85 18.6844 26.8094C18.725 26.7688 18.7572 26.7205 18.7792 26.6674C18.8012 26.6144 18.8125 26.5575 18.8125 26.5C18.8119 25.92 18.5813 25.364 18.1712 24.9538C17.761 24.5437 17.205 24.3131 16.625 24.3125V23.3976C16.7522 23.4242 16.8817 23.4376 17.0116 23.4375H17.1484C17.4245 23.4377 17.6973 23.3777 17.9479 23.2618C18.1984 23.1458 18.4207 22.9766 18.5992 22.7659C18.6107 22.7528 18.6216 22.7391 18.632 22.7255C18.8102 22.9484 19.0364 23.1282 19.2938 23.2515C19.5512 23.3748 19.8331 23.4384 20.1184 23.4375H20.2032C20.4782 23.438 20.75 23.379 21 23.2647V30.4375H20.125C20.0675 30.4375 20.0106 30.4488 19.9576 30.4708C19.9045 30.4928 19.8562 30.525 19.8156 30.5656C19.775 30.6062 19.7428 30.6545 19.7208 30.7076C19.6988 30.7606 19.6875 30.8175 19.6875 30.875V32.1875H18.8125C18.755 32.1875 18.6981 32.1988 18.6451 32.2208C18.592 32.2428 18.5437 32.275 18.5031 32.3156C18.4625 32.3562 18.4303 32.4045 18.4083 32.4576C18.3863 32.5106 18.375 32.5675 18.375 32.625ZM15.3125 31.3125V30.875H17.0625V31.3125H15.3125ZM6.80531 21.2648L7.77109 17.75H9.5468L8.89546 21.7023C8.85648 21.9428 8.73296 22.1616 8.54712 22.3193C8.36127 22.477 8.12528 22.5632 7.88156 22.5625H7.7968C7.63883 22.5624 7.48301 22.526 7.34142 22.4559C7.19983 22.3859 7.07629 22.2842 6.98038 22.1586C6.88448 22.0331 6.8188 21.8872 6.78844 21.7321C6.75807 21.5771 6.76385 21.4172 6.80531 21.2648ZM7 23.2647C7.25004 23.379 7.52185 23.438 7.7968 23.4375H7.88156C8.16694 23.4384 8.44883 23.3748 8.70621 23.2515C8.96358 23.1282 9.18979 22.9484 9.36797 22.7255C9.37836 22.7391 9.38929 22.7528 9.40078 22.7659C9.6829 23.0988 10.0711 23.3244 10.5 23.4047V25.625H7V23.2647ZM10.8516 22.5625C10.7025 22.5626 10.5552 22.5302 10.4198 22.4675C10.2845 22.4049 10.1644 22.3136 10.0679 22.1999C9.97144 22.0862 9.90087 21.9528 9.86112 21.8091C9.82137 21.6654 9.81339 21.5147 9.83773 21.3676L10.4338 17.75H12.2254L12.0143 21.5913C11.9999 21.8536 11.8855 22.1005 11.6947 22.2811C11.5039 22.4618 11.2511 22.5625 10.9884 22.5625H10.8516ZM14.823 22.2415C14.7274 22.3433 14.6118 22.4243 14.4834 22.4795C14.3551 22.5348 14.2168 22.563 14.0771 22.5625H13.9229C13.7835 22.5625 13.6455 22.5341 13.5174 22.479C13.3893 22.424 13.2737 22.3434 13.1777 22.2423C13.0817 22.1411 13.0073 22.0215 12.9591 21.8907C12.9108 21.7599 12.8897 21.6206 12.897 21.4813L13.1015 17.75H14.8985L15.103 21.4786V21.4813C15.111 21.6205 15.0903 21.7598 15.0421 21.8905C14.994 22.0213 14.9194 22.1408 14.823 22.2415ZM15.9857 21.5912L15.7746 17.75H17.5662L18.1623 21.3676C18.1866 21.5147 18.1786 21.6654 18.1389 21.8091C18.0991 21.9528 18.0286 22.0862 17.9321 22.1999C17.8356 22.3136 17.7155 22.4049 17.5802 22.4675C17.4448 22.5302 17.2975 22.5626 17.1484 22.5625H17.0116C16.7489 22.5625 16.4961 22.4618 16.3053 22.2811C16.1145 22.1005 16.0001 21.8536 15.9857 21.5913V21.5912ZM16.625 25.1875C16.8964 25.1878 17.161 25.2721 17.3825 25.4288C17.6041 25.5854 17.7718 25.8068 17.8626 26.0625H14.5124C14.6032 25.8068 14.7709 25.5854 14.9925 25.4288C15.214 25.2721 15.4786 25.1878 15.75 25.1875H16.625ZM21.0202 22.1578C20.9248 22.284 20.8013 22.3863 20.6595 22.4566C20.5177 22.5268 20.3614 22.5631 20.2032 22.5625H20.1184C19.8747 22.5632 19.6387 22.477 19.4529 22.3193C19.267 22.1616 19.1435 21.9428 19.1045 21.7023L18.4532 17.75H20.2289L21.1941 21.2626C21.1941 21.2631 21.1947 21.2642 21.1947 21.2648C21.2366 21.417 21.2427 21.5768 21.2125 21.7318C21.1822 21.8868 21.1164 22.0326 21.0202 22.1578ZM20.5625 31.3125H21V32.1875H20.5625V31.3125ZM24.2009 21.1658C24.2608 21.3215 24.2819 21.4894 24.2624 21.655C24.2428 21.8207 24.1833 21.9791 24.0889 22.1166C23.9944 22.2541 23.868 22.3666 23.7204 22.4442C23.5727 22.5219 23.4084 22.5625 23.2416 22.5625C23.0167 22.562 22.7981 22.4879 22.6191 22.3515C22.4402 22.2152 22.3108 22.024 22.2507 21.8073L21.1362 17.75H22.8873L24.2009 21.1658ZM5.25 10.75H22.75V16.875H5.25V10.75ZM3.91125 22.1168C3.81565 21.9798 3.75539 21.8213 3.73583 21.6554C3.71627 21.4894 3.73802 21.3213 3.79914 21.1658L5.11273 17.75H6.86383L5.7493 21.8073C5.68917 22.024 5.55977 22.2152 5.38085 22.3515C5.20193 22.4879 4.98332 22.562 4.75836 22.5625C4.59138 22.5637 4.42668 22.5237 4.27889 22.4459C4.13111 22.3682 4.00482 22.2551 3.91125 22.1168ZM5.25 23.3719C5.58308 23.2826 5.88558 23.1043 6.125 22.8562V32.1875H5.25V23.3719ZM8.75 35.25H1.75V33.0625H8.75V35.25ZM9.1875 32.1875H7V26.5H10.5V35.25H9.625V32.625C9.62502 32.5675 9.61371 32.5106 9.59173 32.4576C9.56975 32.4045 9.53752 32.3562 9.49689 32.3156C9.45626 32.275 9.40803 32.2428 9.35494 32.2208C9.30186 32.1988 9.24496 32.1875 9.1875 32.1875ZM11.375 31.3125H11.8125V32.625C11.8125 32.6825 11.8238 32.7394 11.8458 32.7924C11.8678 32.8455 11.9 32.8938 11.9406 32.9344C11.9812 32.975 12.0295 33.0072 12.0826 33.0292C12.1356 33.0512 12.1925 33.0625 12.25 33.0625H13.125V35.25H11.375V31.3125ZM26.25 35.25H19.25V33.0625H26.25V35.25Z" fill="url(#paint0_linear)"></path>
    <path d="M17.0625 14.25H16.5878C16.4961 13.7131 16.24 13.2178 15.8548 12.8327C15.4697 12.4475 14.9744 12.1914 14.4375 12.0997V11.625C14.4375 11.509 14.3914 11.3977 14.3094 11.3156C14.2273 11.2336 14.116 11.1875 14 11.1875C13.884 11.1875 13.7727 11.2336 13.6906 11.3156C13.6086 11.3977 13.5625 11.509 13.5625 11.625V12.0997C13.0256 12.1914 12.5303 12.4475 12.1452 12.8327C11.76 13.2178 11.5039 13.7131 11.4122 14.25H10.9375C10.8215 14.25 10.7102 14.2961 10.6281 14.3781C10.5461 14.4602 10.5 14.5715 10.5 14.6875C10.5005 15.1515 10.6851 15.5963 11.0131 15.9244C11.3412 16.2524 11.786 16.437 12.25 16.4375H15.75C16.214 16.437 16.6588 16.2524 16.9869 15.9244C17.3149 15.5963 17.4995 15.1515 17.5 14.6875C17.5 14.5715 17.4539 14.4602 17.3719 14.3781C17.2898 14.2961 17.1785 14.25 17.0625 14.25ZM14 12.9375C14.3879 12.938 14.7646 13.0671 15.0713 13.3046C15.3779 13.5421 15.5971 13.8746 15.6946 14.25H12.3054C12.4029 13.8746 12.6221 13.5421 12.9287 13.3046C13.2354 13.0671 13.6121 12.938 14 12.9375ZM15.75 15.5625H12.25C12.0965 15.5624 11.9456 15.522 11.8127 15.4452C11.6797 15.3684 11.5693 15.258 11.4924 15.125H16.5076C16.4307 15.258 16.3203 15.3684 16.1873 15.4452C16.0544 15.522 15.9035 15.5624 15.75 15.5625Z" fill="url(#paint1_linear)"></path>
    <path d="M10.7427 13.3015C10.8026 13.2616 10.8517 13.2074 10.8857 13.1439C10.9197 13.0804 10.9375 13.0095 10.9375 12.9375V11.625H10.0625V12.6877C9.92368 12.7585 9.77677 12.8122 9.625 12.8477V11.625H8.75V12.8477C8.59823 12.8122 8.45132 12.7585 8.3125 12.6877V11.625H7.4375V12.9375C7.4375 13.0095 7.45528 13.0804 7.48927 13.1439C7.52325 13.2074 7.57239 13.2616 7.63232 13.3015C7.96895 13.5263 8.35024 13.6755 8.75 13.739V16.4375H9.625V13.739C10.0248 13.6755 10.4061 13.5263 10.7427 13.3015Z" fill="url(#paint2_linear)"></path>
    <path d="M18.8124 11.1875C18.3864 11.1875 17.9751 11.3429 17.6555 11.6245C17.3359 11.9061 17.13 12.2945 17.0763 12.7171C17.0227 13.1397 17.1249 13.5673 17.364 13.9198C17.603 14.2724 17.9625 14.5256 18.3749 14.6321V16.4375H19.2499V14.6321C19.6623 14.5256 20.0217 14.2724 20.2608 13.9198C20.4998 13.5673 20.6021 13.1397 20.5484 12.7171C20.4948 12.2945 20.2888 11.9061 19.9692 11.6245C19.6497 11.3429 19.2383 11.1875 18.8124 11.1875ZM18.8124 13.8125C18.6393 13.8125 18.4702 13.7612 18.3263 13.665C18.1824 13.5689 18.0702 13.4322 18.004 13.2723C17.9378 13.1125 17.9204 12.9365 17.9542 12.7668C17.988 12.5971 18.0713 12.4412 18.1937 12.3188C18.316 12.1964 18.4719 12.1131 18.6417 12.0793C18.8114 12.0456 18.9873 12.0629 19.1472 12.1291C19.3071 12.1953 19.4438 12.3075 19.5399 12.4514C19.6361 12.5953 19.6874 12.7644 19.6874 12.9375C19.6871 13.1695 19.5948 13.3919 19.4308 13.5559C19.2668 13.72 19.0444 13.8122 18.8124 13.8125Z" fill="url(#paint3_linear)"></path>
    <ellipse opacity="0.15" cx="22.0968" cy="12.5" rx="12.0968" ry="12.5" fill="url(#paint4_linear)"></ellipse>
    <defs>
      <linearGradient id="paint0_linear" x1="0.875" y1="22.125" x2="26.4959" y2="22.2393" gradientUnits="userSpaceOnUse">
        <stop stop-color="#FF5050"></stop>
        <stop offset="1" stop-color="#FF7070" stop-opacity="0.84"></stop>
      </linearGradient>
      <linearGradient id="paint1_linear" x1="10.5" y1="13.6375" x2="17.3321" y2="13.6781" gradientUnits="userSpaceOnUse">
        <stop stop-color="#FF5050"></stop>
        <stop offset="1" stop-color="#FF7070" stop-opacity="0.84"></stop>
      </linearGradient>
      <linearGradient id="paint2_linear" x1="7.4375" y1="13.8708" x2="10.8536" y2="13.8819" gradientUnits="userSpaceOnUse">
        <stop stop-color="#FF5050"></stop>
        <stop offset="1" stop-color="#FF7070" stop-opacity="0.84"></stop>
      </linearGradient>
      <linearGradient id="paint3_linear" x1="17.0624" y1="13.6375" x2="20.4785" y2="13.6477" gradientUnits="userSpaceOnUse">
        <stop stop-color="#FF5050"></stop>
        <stop offset="1" stop-color="#FF7070" stop-opacity="0.84"></stop>
      </linearGradient>
      <linearGradient id="paint4_linear" x1="10" y1="11.6667" x2="33.6137" y2="11.7686" gradientUnits="userSpaceOnUse">
        <stop stop-color="#FF7070"></stop>
        <stop offset="1" stop-color="#FF7070" stop-opacity="0.65"></stop>
      </linearGradient>
    </defs>
  </symbol>
  <symbol fill="none" xmlns="http://www.w3.org/2000/svg" viewBox="0 0 33 34" id="delivery02">
    <path d="M5.75084 25.544L6.11049 26.4002C6.36416 26.2961 6.62836 26.2192 6.89857 26.1706L6.73094 25.2585C6.3949 25.3189 6.06634 25.4146 5.75084 25.544Z" fill="url(#paint0_linear)"></path>
    <path d="M3.28835 27.8437L4.1321 28.2476C4.4241 27.6522 4.8683 27.1425 5.42075 26.7689L4.89165 26.0039C4.20429 26.4688 3.65164 27.103 3.28835 27.8437Z" fill="url(#paint1_linear)"></path>
    <path d="M29.0625 27.5828C29.063 26.785 28.7655 26.015 28.2268 25.4206L27.5283 26.0386C27.8054 26.3442 27.9952 26.7174 28.0781 27.1195H24.8437C24.7666 27.1195 24.6906 27.1384 24.6226 27.1744C24.5545 27.2103 24.4966 27.2624 24.4537 27.3258L22.7179 29.8994H21.5625V28.5095C21.5635 27.6496 21.9095 26.8253 22.5247 26.2173C23.1398 25.6093 23.9738 25.2673 24.8437 25.2663H25.7812C26.2422 25.2655 26.6931 25.3998 27.0769 25.6521L27.596 24.8805C27.1912 24.6142 26.7313 24.4408 26.25 24.3728V22.9498C26.25 22.8269 26.2006 22.709 26.1127 22.6222C26.0248 22.5353 25.9056 22.4865 25.7812 22.4865C25.2841 22.4859 24.8076 22.2905 24.456 21.943C24.1045 21.5956 23.9068 21.1246 23.9062 20.6332V18.78H25.3125C25.4368 18.78 25.556 18.7312 25.644 18.6443C25.7319 18.5574 25.7812 18.4396 25.7812 18.3167V15.0735C25.7812 14.9506 25.7319 14.8328 25.644 14.7459C25.556 14.659 25.4368 14.6102 25.3125 14.6102H24.4857C24.2899 14.6105 24.0949 14.6371 23.9062 14.6891V14.1469C23.9063 14.0417 23.8701 13.9395 23.8035 13.8573L22.2698 11.9624C22.4708 11.6274 22.543 11.2322 22.4734 10.8489C22.4038 10.4657 22.197 10.1199 21.8907 9.87495C21.5845 9.62997 21.1993 9.50209 20.8055 9.51469C20.4118 9.52729 20.0357 9.67952 19.7461 9.94357C19.4566 10.2076 19.2728 10.5658 19.2284 10.9528C19.184 11.3397 19.282 11.7295 19.5044 12.0509C19.7269 12.3723 20.0589 12.6039 20.4398 12.7033C20.8207 12.8027 21.2251 12.7633 21.5791 12.5923L22.9687 14.3094V14.894L20.908 14.2151C20.773 14.1691 20.6311 14.146 20.4883 14.1469H16.6219L14.3965 11.5807C14.5827 11.4528 14.7348 11.2824 14.8399 11.0838C14.945 10.8853 14.9999 10.6645 15 10.4404V10.2635L15.6784 9.92819C15.7378 9.89881 15.7903 9.85727 15.8322 9.80632C15.8742 9.75538 15.9047 9.6962 15.9218 9.6327C15.9388 9.56921 15.942 9.50286 15.9312 9.43805C15.9203 9.37324 15.8956 9.31146 15.8587 9.2568L15.0888 8.11532C15.1957 8.09493 15.2921 8.03839 15.3614 7.95542C15.4308 7.87244 15.4687 7.7682 15.4687 7.66059C15.4679 6.92358 15.1713 6.21701 14.644 5.69587C14.1168 5.17473 13.4019 4.88158 12.6562 4.88074C11.7735 4.88074 10.9562 5.13133 10.3482 5.79531C10.0848 6.08344 9.88532 6.42284 9.76248 6.79171C9.63965 7.16057 9.59622 7.55075 9.63498 7.93718L9.73529 8.9282C9.77749 9.35549 9.98412 9.75044 10.3125 10.0315V18.78C10.3122 19.1055 10.3993 19.4252 10.5647 19.7066H9.84375C9.68404 19.7065 9.52551 19.7335 9.375 19.7863V13.6836C9.37458 13.3151 9.22629 12.9618 8.96266 12.7012C8.69902 12.4407 8.34158 12.2941 7.96875 12.2937H2.34375C1.97092 12.2941 1.61348 12.4407 1.34984 12.7012C1.08621 12.9618 0.937919 13.3151 0.9375 13.6836V16.0001H1.875V15.0735H8.4375V19.7066H1.875V16.9268H0.9375V20.7098C0.937396 20.9269 1.01442 21.137 1.15511 21.3037C1.29581 21.4703 1.49125 21.5828 1.7073 21.6215L6.09375 22.4098V23.497C5.69633 23.588 5.30824 23.715 4.93441 23.8764H2.34375C2.21943 23.8764 2.1002 23.9252 2.01229 24.0121C1.92439 24.099 1.875 24.2168 1.875 24.3397V26.5388C1.26253 27.5553 0.938666 28.7163 0.9375 29.8994C0.9375 30.0223 0.986886 30.1401 1.07479 30.227C1.1627 30.3139 1.28193 30.3627 1.40625 30.3627H3.55494C3.83507 31.0471 4.31562 31.6332 4.93497 32.046C5.55433 32.4587 6.28428 32.6792 7.03125 32.6792C7.77822 32.6792 8.50817 32.4587 9.12753 32.046C9.74688 31.6332 10.2274 31.0471 10.5076 30.3627H18.3891C18.7156 30.3625 19.0385 30.295 19.3371 30.1645C19.6358 30.0339 19.9036 29.8433 20.1234 29.6046L20.625 29.0591V30.3627C20.625 30.4856 20.6744 30.6034 20.7623 30.6903C20.8502 30.7772 20.9694 30.826 21.0937 30.826H22.065C22.4778 31.5326 23.1149 32.0848 23.8775 32.397C24.6402 32.7092 25.4857 32.7639 26.2831 32.5528C27.0804 32.3416 27.785 31.8763 28.2875 31.229C28.7901 30.5817 29.0625 29.7887 29.0625 28.9728C29.0629 28.6179 29.0114 28.2649 28.9098 27.9245C28.9579 27.8812 28.9964 27.8285 29.0227 27.7696C29.049 27.7108 29.0625 27.6472 29.0625 27.5828ZM20.1562 11.1354C20.1562 10.9979 20.1975 10.8636 20.2747 10.7493C20.352 10.635 20.4618 10.5459 20.5903 10.4933C20.7188 10.4407 20.8602 10.427 20.9965 10.4538C21.1329 10.4806 21.2582 10.5468 21.3566 10.644C21.4549 10.7412 21.5219 10.865 21.549 10.9998C21.5761 11.1346 21.5622 11.2744 21.509 11.4014C21.4558 11.5283 21.3656 11.6369 21.25 11.7132C21.1344 11.7896 20.9984 11.8304 20.8594 11.8304C20.673 11.8302 20.4942 11.7569 20.3624 11.6266C20.2306 11.4963 20.1565 11.3197 20.1562 11.1354ZM13.4502 27.5828C12.9911 27.5823 12.551 27.4018 12.2264 27.081C11.9018 26.7602 11.7193 26.3252 11.7187 25.8714C11.7187 25.4166 11.8351 24.9912 12.1418 24.6412C12.4151 24.3301 12.7925 24.1266 13.2051 24.0678C13.7031 23.9976 14.1589 23.7521 14.4886 23.3765C14.8183 23.0009 14.9999 22.5204 15 22.0231C15.0001 21.9623 14.988 21.902 14.9644 21.8457C14.9408 21.7895 14.9062 21.7384 14.8626 21.6954C14.9423 21.5308 14.9883 21.3522 14.998 21.1699C15.0078 20.9876 14.9811 20.8053 14.9194 20.6332H16.1925L14.1355 25.9192C14.0858 26.0465 14.061 26.182 14.0625 26.3184V27.5828H13.4502ZM15 26.6562H17.3437C17.4443 26.6563 17.5421 26.6884 17.6228 26.7476C17.7035 26.8068 17.7628 26.8902 17.792 26.9853C17.8211 27.0804 17.8185 27.1822 17.7846 27.2757C17.7507 27.3693 17.6873 27.4496 17.6037 27.5048C17.4859 27.5558 17.3587 27.5824 17.2301 27.5828H15V26.6562ZM18.6376 26.5752C18.5444 26.3596 18.3976 26.1707 18.211 26.0261C18.0243 25.8814 17.8037 25.7856 17.5697 25.7476L19.511 21.1282C19.6835 20.7177 19.7508 20.2714 19.707 19.8289C19.6633 19.3865 19.5097 18.9616 19.26 18.5919C19.0103 18.2221 18.6722 17.919 18.2755 17.7094C17.8789 17.4997 17.4361 17.39 16.9863 17.3901H15V16.6554L15.1373 16.7911C15.1808 16.8341 15.2325 16.8682 15.2894 16.8915C15.3462 16.9148 15.4072 16.9268 15.4687 16.9268H20.2369C20.1618 17.1364 20.1387 17.3608 20.1695 17.581C20.2004 17.8013 20.2843 18.0111 20.4142 18.1927C20.5441 18.3742 20.7161 18.5224 20.916 18.6246C21.1158 18.7268 21.3375 18.7801 21.5625 18.78H21.5638C21.2582 19.1804 21.0932 19.6684 21.0937 20.1699V23.764C21.093 24.0096 20.9944 24.2451 20.8191 24.4192L18.6376 26.5752ZM21.5625 17.8534C21.4698 17.8534 21.3792 17.8262 21.3021 17.7753C21.225 17.7244 21.1649 17.652 21.1294 17.5674C21.094 17.4827 21.0847 17.3895 21.1028 17.2997C21.1208 17.2098 21.1655 17.1272 21.231 17.0625C21.2966 16.9977 21.3801 16.9535 21.4711 16.9357C21.562 16.9178 21.6562 16.927 21.7419 16.962C21.8275 16.9971 21.9007 17.0565 21.9522 17.1327C22.0038 17.2089 22.0312 17.2984 22.0312 17.3901C22.0311 17.5129 21.9817 17.6307 21.8938 17.7175C21.8059 17.8044 21.6868 17.8532 21.5625 17.8534ZM24.8437 15.5368V17.8534H23.9062V15.6811C24.0845 15.5867 24.2835 15.5372 24.4857 15.5368H24.8437ZM22.9687 17.3901C22.9688 17.1677 22.9149 16.9485 22.8115 16.751C22.7081 16.5535 22.5582 16.3834 22.3745 16.2551C22.1908 16.1267 21.9786 16.0438 21.7557 16.0133C21.5329 15.9828 21.3058 16.0056 21.0937 16.0798V15.2531L22.9687 15.8708V17.3901ZM16.4062 15.0735H20.1562V16.0001H15.6629L12.9877 13.356L12.3248 14.0112L14.0625 15.7287V17.3901H11.25V11.8304H13.3781L16.0504 14.9118C16.0944 14.9625 16.149 15.0032 16.2104 15.0312C16.2718 15.0591 16.3386 15.0735 16.4062 15.0735ZM11.0433 6.41707C11.4718 5.94907 12.0405 5.80735 12.6562 5.80735C13.0718 5.80788 13.4755 5.9446 13.804 6.19611C14.1326 6.44762 14.3675 6.79972 14.472 7.19728H12.6562C12.5319 7.19728 12.4127 7.24609 12.3248 7.33298C12.2369 7.41987 12.1875 7.53771 12.1875 7.66059V8.76094C12.1868 8.95363 12.1114 9.13871 11.9768 9.27809C11.8422 9.41747 11.6586 9.50054 11.4639 9.51019C11.2692 9.51983 11.0782 9.45533 10.9302 9.32996C10.7821 9.20458 10.6884 9.02788 10.6682 8.83623L10.5679 7.84522C10.5404 7.58747 10.5686 7.32689 10.6505 7.08071C10.7325 6.83452 10.8664 6.60832 11.0433 6.41707ZM11.4258 10.4404C11.8763 10.44 12.3082 10.2629 12.6268 9.94802C12.9454 9.63315 13.1245 9.20623 13.125 8.76094V8.1239H14.0625C14.0625 8.21538 14.0899 8.30482 14.1412 8.38092L14.7842 9.33429L14.3213 9.56293C14.2435 9.60144 14.1781 9.66057 14.1324 9.73373C14.0867 9.80688 14.0625 9.89115 14.0625 9.97713V10.4404C14.0624 10.5633 14.0129 10.681 13.9251 10.7679C13.8372 10.8548 13.718 10.9036 13.5937 10.9037H11.25V10.4313C11.3084 10.4373 11.3671 10.4404 11.4258 10.4404ZM11.25 18.78V18.3167H16.9863C17.2819 18.3167 17.5728 18.3888 17.8334 18.5265C18.094 18.6643 18.3162 18.8635 18.4803 19.1064C18.6443 19.3494 18.7452 19.6286 18.7739 19.9193C18.8027 20.21 18.7584 20.5033 18.6451 20.773L16.5621 25.7296H15.2137L17.3125 20.3362C17.3398 20.2661 17.3494 20.1904 17.3405 20.1157C17.3316 20.041 17.3045 19.9696 17.2614 19.9076C17.2183 19.8456 17.1607 19.7949 17.0933 19.7599C17.026 19.7249 16.9511 19.7066 16.875 19.7066H12.1875C11.9389 19.7063 11.7007 19.6086 11.5249 19.4349C11.3492 19.2612 11.2503 19.0257 11.25 18.78ZM9.84375 20.6332H13.5937C13.7181 20.6332 13.8373 20.682 13.9252 20.7689C14.0131 20.8558 14.0625 20.9737 14.0625 21.0965C14.0625 21.2194 14.0131 21.3373 13.9252 21.4241C13.8373 21.511 13.7181 21.5598 13.5937 21.5598H9.84375C9.71943 21.5598 9.6002 21.511 9.51229 21.4241C9.42439 21.3373 9.375 21.2194 9.375 21.0965C9.375 20.9737 9.42439 20.8558 9.51229 20.7689C9.6002 20.682 9.71943 20.6332 9.84375 20.6332ZM1.875 14.1469V13.6836C1.87514 13.5608 1.92457 13.443 2.01245 13.3561C2.10033 13.2693 2.21947 13.2204 2.34375 13.2203H7.96875C8.09303 13.2204 8.21217 13.2693 8.30005 13.3561C8.38793 13.443 8.43736 13.5608 8.4375 13.6836V14.1469H1.875ZM1.875 20.6332H8.4375V21.5598H6.60475L1.875 20.7098V20.6332ZM3.39199 24.803C3.18852 24.9663 2.99502 25.1413 2.8125 25.3272V24.803H3.39199ZM7.03125 31.7526C6.53808 31.7504 6.05404 31.6211 5.62697 31.3773C5.1999 31.1335 4.8446 30.7838 4.59621 30.3627H5.79223C6.13429 30.6612 6.57491 30.826 7.03125 30.826C7.48759 30.826 7.92821 30.6612 8.27027 30.3627H9.46629C9.2179 30.7838 8.8626 31.1335 8.43553 31.3773C8.00846 31.6211 7.52441 31.7504 7.03125 31.7526ZM19.4297 28.9815C19.2978 29.1246 19.1371 29.239 18.9579 29.3173C18.7787 29.3955 18.585 29.436 18.3891 29.4361H1.89439C1.9952 28.2265 2.48787 27.0813 3.29929 26.1704C4.11071 25.2594 5.19764 24.6314 6.39879 24.3793C6.51996 24.3533 6.64358 24.34 6.76758 24.3397H9.84375V23.4131H7.03125V22.4865H13.9629C13.8835 22.6626 13.7601 22.816 13.6043 22.9322C13.4485 23.0484 13.2655 23.1236 13.0723 23.1508C12.4364 23.2412 11.8547 23.5548 11.4334 24.0341C10.9798 24.5504 10.7812 25.1962 10.7812 25.8715C10.7808 26.4993 11.008 27.1064 11.4216 27.5828H7.5V28.5095H17.2301C17.7266 28.5058 18.2022 28.3111 18.5559 27.9666L21.482 25.0744C21.8325 24.7261 22.0298 24.2552 22.0312 23.764V20.1699C22.0316 19.8826 22.1219 19.6023 22.2897 19.3677C22.4576 19.1331 22.6948 18.9555 22.9687 18.8594V20.6332C22.9696 21.29 23.2053 21.9253 23.6342 22.4269C24.063 22.9285 24.6575 23.2641 25.3125 23.3744V24.3397C25.0215 24.3397 24.7237 24.3223 24.4344 24.3597C23.5575 24.4456 22.7297 24.8003 22.0667 25.374C21.4037 25.9478 20.9387 26.7119 20.7367 27.5597L19.4297 28.9815ZM25.0946 28.0462H25.1184L25.6842 28.6054C25.7825 28.703 25.8378 28.835 25.8381 28.9728C25.8381 29.0755 25.8073 29.176 25.7495 29.2614C25.6918 29.3468 25.6097 29.4134 25.5136 29.4527C25.4176 29.4921 25.3119 29.5023 25.21 29.4823C25.108 29.4623 25.0143 29.4128 24.9408 29.3401L24.5094 28.9138L25.0946 28.0462ZM25.3125 31.7526C24.9063 31.7514 24.5052 31.6636 24.1364 31.4954C23.7676 31.3272 23.4398 31.0825 23.1753 30.7778C23.2495 30.7421 23.3128 30.6875 23.3587 30.6197L23.7652 30.0174C23.9909 30.3446 24.3167 30.5917 24.6949 30.7224C25.0731 30.8531 25.4837 30.8606 25.8665 30.7437C26.2493 30.6269 26.5841 30.3919 26.8219 30.0731C27.0596 29.7544 27.1878 29.3688 27.1875 28.9728C27.1882 28.6982 27.1263 28.4271 27.0065 28.1794C26.9846 28.1338 26.9606 28.0896 26.9352 28.0462H27.9647C28.1144 28.4655 28.1601 28.9142 28.0981 29.3546C28.0361 29.795 27.8682 30.2143 27.6084 30.5773C27.3487 30.9404 27.0046 31.2366 26.6051 31.4411C26.2056 31.6455 25.7624 31.7524 25.3125 31.7526Z" fill="url(#paint2_linear)"></path>
    <path d="M3.75 15.9996H2.8125V18.7795H3.75V15.9996Z" fill="url(#paint3_linear)"></path>
    <ellipse opacity="0.15" cx="20.5" cy="12.5717" rx="12.5" ry="12.5717" fill="url(#paint4_linear)"></ellipse>
    <defs>
      <linearGradient id="paint0_linear" x1="5.75084" y1="25.7913" x2="6.87107" y2="25.7963" gradientUnits="userSpaceOnUse">
        <stop stop-color="#47C2FF"></stop>
        <stop offset="1" stop-color="#1CB4FF" stop-opacity="0.71"></stop>
      </linearGradient>
      <linearGradient id="paint1_linear" x1="3.28835" y1="27.051" x2="5.36964" y2="27.0598" gradientUnits="userSpaceOnUse">
        <stop stop-color="#47C2FF"></stop>
        <stop offset="1" stop-color="#1CB4FF" stop-opacity="0.71"></stop>
      </linearGradient>
      <linearGradient id="paint2_linear" x1="0.9375" y1="17.8533" x2="28.3884" y2="17.9773" gradientUnits="userSpaceOnUse">
        <stop stop-color="#47C2FF"></stop>
        <stop offset="1" stop-color="#1CB4FF" stop-opacity="0.71"></stop>
      </linearGradient>
      <linearGradient id="paint3_linear" x1="2.8125" y1="17.2969" x2="3.72755" y2="17.2983" gradientUnits="userSpaceOnUse">
        <stop stop-color="#47C2FF"></stop>
        <stop offset="1" stop-color="#1CB4FF" stop-opacity="0.71"></stop>
      </linearGradient>
      <linearGradient id="paint4_linear" x1="8" y1="11.7335" x2="32.4008" y2="11.8418" gradientUnits="userSpaceOnUse">
        <stop stop-color="#47C2FF"></stop>
        <stop offset="1" stop-color="#63CBFE"></stop>
      </linearGradient>
    </defs>
  </symbol>
  <symbol fill="none" xmlns="http://www.w3.org/2000/svg" viewBox="0 0 41 34" id="delivery03">
    <g clip-path="url(#clip0)">
      <path d="M31.7543 12.8812L32.7503 11.8853C33.0383 11.5974 33.1969 11.2146 33.1969 10.8074C33.1969 10.4003 33.0383 10.0174 32.7504 9.72958L31.6096 8.58879C31.3217 8.30092 30.9389 8.14234 30.5318 8.14234C30.1246 8.14234 29.7418 8.30092 29.454 8.58879L28.4579 9.58481C27.1434 8.67936 25.6517 8.01371 24.046 7.6516V6.17944H24.6521C25.4727 6.17944 26.1403 5.51179 26.1403 4.69121V2.6208C26.1403 1.80015 25.4727 1.13251 24.6521 1.13251H17.8004C16.9798 1.13251 16.3122 1.80015 16.3122 2.6208V4.69114C16.3122 5.51173 16.9798 6.17937 17.8004 6.17937H18.4064V7.65565C16.8081 8.01876 15.3231 8.68288 14.0137 9.58475L13.0177 8.58872C12.7299 8.30085 12.347 8.14227 11.94 8.14227C11.5327 8.14227 11.15 8.30085 10.8621 8.58872L9.72132 9.72951C9.12706 10.3238 9.12706 11.2909 9.72132 11.8852L9.8979 12.0618H5.19077C4.82407 12.0618 4.52671 12.3591 4.52671 12.7258C4.52671 13.0926 4.82407 13.3899 5.19077 13.3899H10.3845C9.88966 14.1868 9.48 15.0417 9.16863 15.9423H0.664061C0.297367 15.9423 0 16.2396 0 16.6064C0 16.9732 0.297367 17.2705 0.664061 17.2705H8.78898C8.60165 18.0942 8.4942 18.9477 8.47521 19.8229H4.24999C3.8833 19.8229 3.58593 20.1202 3.58593 20.487C3.58593 20.8537 3.8833 21.151 4.24999 21.151H8.51492C8.58671 22.0299 8.74801 22.8836 8.98946 23.7035H3.32031C2.95361 23.7035 2.65624 24.0008 2.65624 24.3675C2.65624 24.7343 2.95361 25.0316 3.32031 25.0316H9.46181C11.3938 29.63 15.9436 32.8675 21.2358 32.8675C28.274 32.8675 34 27.1415 34 20.1033C34 17.4246 33.1699 14.9364 31.7543 12.8812ZM30.3931 9.5279C30.4406 9.48042 30.4947 9.47046 30.5318 9.47046C30.5689 9.47046 30.623 9.48042 30.6705 9.5279L31.8113 10.6687C31.8588 10.7162 31.8688 10.7704 31.8688 10.8074C31.8688 10.8445 31.8588 10.8987 31.8112 10.9461L30.9382 11.8192C30.5031 11.3104 30.0288 10.8361 29.52 10.401L30.3931 9.5279ZM17.6403 4.69121V2.6208C17.6403 2.53248 17.7122 2.46063 17.8004 2.46063H24.6521C24.7403 2.46063 24.8122 2.53248 24.8122 2.6208V4.69114C24.8122 4.77947 24.7403 4.85125 24.6521 4.85125H23.382H19.0704H17.8004C17.7122 4.85132 17.6403 4.77947 17.6403 4.69121ZM19.7345 6.17944H22.7179V7.42568C22.2315 7.36917 21.7372 7.33916 21.2359 7.33916C20.7279 7.33916 20.2272 7.3699 19.7346 7.42787L19.7345 6.17944ZM10.6604 10.6686L11.8012 9.52784C11.8486 9.48036 11.9028 9.4704 11.9399 9.4704C11.9769 9.4704 12.0311 9.48036 12.0786 9.52784L12.9516 10.4009C12.4428 10.836 11.9686 11.3103 11.5335 11.8191L10.6604 10.9461C10.5839 10.8696 10.5839 10.7451 10.6604 10.6686ZM21.2358 31.5393C14.93 31.5393 9.79975 26.4091 9.79975 20.1033C9.79975 13.7974 14.93 8.66721 21.2358 8.66721C27.5417 8.66721 32.6719 13.7974 32.6719 20.1033C32.6719 26.4091 27.5417 31.5393 21.2358 31.5393Z" fill="url(#paint0_linear)"></path>
      <path d="M25.6188 14.7811L22.4797 17.9202C22.1126 17.7102 21.6881 17.5895 21.2358 17.5895C19.8497 17.5895 18.722 18.7171 18.722 20.1033C18.722 21.4894 19.8497 22.617 21.2358 22.617C22.6219 22.617 23.7495 21.4894 23.7495 20.1033C23.7495 19.6509 23.6288 19.2265 23.4188 18.8594L26.5579 15.7203C26.8172 15.461 26.8172 15.0405 26.5579 14.7811C26.2985 14.5218 25.8782 14.5218 25.6188 14.7811ZM21.2358 21.289C20.582 21.289 20.0502 20.7571 20.0502 20.1034C20.0502 19.4496 20.5821 18.9177 21.2358 18.9177C21.8895 18.9177 22.4214 19.4496 22.4214 20.1034C22.4214 20.7571 21.8896 21.289 21.2358 21.289Z" fill="url(#paint1_linear)"></path>
      <path d="M21.2361 11.4937C21.4107 11.4937 21.582 11.4226 21.7055 11.2991C21.829 11.1756 21.9001 11.0042 21.9001 10.8296C21.9001 10.6549 21.8291 10.4836 21.7055 10.3601C21.582 10.2366 21.4107 10.1655 21.2361 10.1655C21.0614 10.1655 20.8901 10.2366 20.7666 10.3601C20.6431 10.4836 20.572 10.6549 20.572 10.8296C20.572 11.0049 20.643 11.1756 20.7666 11.2991C20.8902 11.4226 21.0614 11.4937 21.2361 11.4937Z" fill="url(#paint2_linear)"></path>
      <path d="M21.2361 28.7128C21.0614 28.7128 20.8901 28.7838 20.7666 28.9073C20.6431 29.0309 20.572 29.2022 20.572 29.3768C20.572 29.5521 20.643 29.7228 20.7666 29.8463C20.8901 29.9705 21.0614 30.0409 21.2361 30.0409C21.4107 30.0409 21.582 29.9705 21.7055 29.8463C21.829 29.7228 21.9001 29.5515 21.9001 29.3768C21.9001 29.2022 21.8291 29.0309 21.7055 28.9073C21.582 28.7838 21.4107 28.7128 21.2361 28.7128Z" fill="url(#paint3_linear)"></path>
      <path d="M14.6784 12.8815C14.5038 12.8815 14.3325 12.9525 14.2089 13.076C14.0854 13.1996 14.0144 13.3709 14.0144 13.5455C14.0144 13.7208 14.0854 13.8915 14.2089 14.0157C14.3325 14.1392 14.5038 14.2096 14.6784 14.2096C14.8531 14.2096 15.0244 14.1392 15.1479 14.0157C15.2714 13.8915 15.3425 13.7208 15.3425 13.5455C15.3425 13.3709 15.2714 13.2002 15.1479 13.076C15.0244 12.9525 14.8531 12.8815 14.6784 12.8815Z" fill="url(#paint4_linear)"></path>
      <path d="M27.7937 25.9967C27.6183 25.9967 27.4477 26.0678 27.3235 26.1913C27.2 26.3148 27.1296 26.4861 27.1296 26.6608C27.1296 26.8354 27.2 27.0067 27.3235 27.1303C27.4477 27.2538 27.6183 27.3248 27.7937 27.3248C27.9683 27.3248 28.1397 27.2538 28.2631 27.1303C28.3866 27.0067 28.4577 26.8354 28.4577 26.6608C28.4577 26.4861 28.3867 26.3148 28.2631 26.1913C28.1397 26.0678 27.9683 25.9967 27.7937 25.9967Z" fill="url(#paint5_linear)"></path>
      <path d="M14.6784 25.9967C14.5038 25.9967 14.3325 26.0678 14.2089 26.1913C14.0854 26.3148 14.0144 26.4861 14.0144 26.6608C14.0144 26.8354 14.0854 27.0067 14.2089 27.1303C14.3325 27.2538 14.5038 27.3248 14.6784 27.3248C14.8531 27.3248 15.0244 27.2538 15.1479 27.1303C15.2714 27.0067 15.3425 26.8354 15.3425 26.6608C15.3425 26.4861 15.2714 26.3148 15.1479 26.1913C15.0244 26.0678 14.8531 25.9967 14.6784 25.9967Z" fill="url(#paint6_linear)"></path>
      <path d="M11.9624 19.4391C11.7871 19.4391 11.6165 19.5101 11.493 19.6337C11.3688 19.7572 11.2984 19.9285 11.2984 20.1031C11.2984 20.2778 11.3688 20.4491 11.493 20.5726C11.6165 20.6968 11.7872 20.7672 11.9624 20.7672C12.1371 20.7672 12.3084 20.6968 12.4319 20.5726C12.5554 20.4491 12.6265 20.2778 12.6265 20.1031C12.6265 19.9285 12.5555 19.7572 12.4319 19.6337C12.3084 19.5101 12.1371 19.4391 11.9624 19.4391Z" fill="url(#paint7_linear)"></path>
      <path d="M30.9791 19.6337C30.8556 19.5101 30.6842 19.4391 30.5096 19.4391C30.3343 19.4391 30.1636 19.5101 30.0402 19.6337C29.9167 19.7572 29.8455 19.9285 29.8455 20.1031C29.8455 20.2785 29.9166 20.4491 30.0402 20.5726C30.1636 20.6962 30.3349 20.7672 30.5096 20.7672C30.6842 20.7672 30.8556 20.6962 30.9791 20.5726C31.1026 20.4491 31.1737 20.2778 31.1737 20.1031C31.1736 19.9285 31.1026 19.7572 30.9791 19.6337Z" fill="url(#paint8_linear)"></path>
      <path d="M0.664062 23.7037C0.489414 23.7037 0.318086 23.7741 0.19457 23.8976C0.0710547 24.0218 0 24.1925 0 24.3678C0 24.5424 0.0709883 24.7131 0.19457 24.8373C0.318086 24.9608 0.489414 25.0319 0.664062 25.0319C0.838711 25.0319 1.01004 24.9608 1.13349 24.8373C1.257 24.7138 1.32812 24.5424 1.32812 24.3678C1.32812 24.1925 1.25707 24.0212 1.13349 23.8976C1.01004 23.7741 0.838711 23.7037 0.664062 23.7037Z" fill="url(#paint9_linear)"></path>
      <path d="M30.3142 18.087C30.6656 17.9823 30.8657 17.6124 30.761 17.2609C30.2915 15.6857 29.425 14.236 28.2553 13.0687C27.0853 11.9013 25.6336 11.038 24.057 10.572C23.7054 10.468 23.3359 10.6689 23.232 11.0206C23.128 11.3722 23.3288 11.7417 23.6806 11.8456C26.4825 12.6737 28.6536 14.84 29.4882 17.6402C29.574 17.9284 29.8382 18.1147 30.1243 18.1147C30.187 18.1148 30.2509 18.1058 30.3142 18.087Z" fill="url(#paint10_linear)"></path>
    </g>
    <ellipse opacity="0.35" cx="27.0179" cy="13.5" rx="13.0179" ry="13.5" fill="url(#paint11_linear)"></ellipse>
    <defs>
      <linearGradient id="paint0_linear" x1="-1.82285e-07" y1="15.9422" x2="33.185" y2="16.1008" gradientUnits="userSpaceOnUse">
        <stop stop-color="#FF7D3D"></stop>
        <stop offset="1" stop-color="#F99462" stop-opacity="0.71"></stop>
      </linearGradient>
      <linearGradient id="paint1_linear" x1="18.722" y1="18.3341" x2="26.5599" y2="18.3691" gradientUnits="userSpaceOnUse">
        <stop stop-color="#FF7D3D"></stop>
        <stop offset="1" stop-color="#F99462" stop-opacity="0.71"></stop>
      </linearGradient>
      <linearGradient id="paint2_linear" x1="20.572" y1="10.7853" x2="21.8683" y2="10.7911" gradientUnits="userSpaceOnUse">
        <stop stop-color="#FF7D3D"></stop>
        <stop offset="1" stop-color="#F99462" stop-opacity="0.71"></stop>
      </linearGradient>
      <linearGradient id="paint3_linear" x1="20.572" y1="29.3326" x2="21.8683" y2="29.3383" gradientUnits="userSpaceOnUse">
        <stop stop-color="#FF7D3D"></stop>
        <stop offset="1" stop-color="#F99462" stop-opacity="0.71"></stop>
      </linearGradient>
      <linearGradient id="paint4_linear" x1="14.0144" y1="13.5013" x2="15.3107" y2="13.507" gradientUnits="userSpaceOnUse">
        <stop stop-color="#FF7D3D"></stop>
        <stop offset="1" stop-color="#F99462" stop-opacity="0.71"></stop>
      </linearGradient>
      <linearGradient id="paint5_linear" x1="27.1296" y1="26.6165" x2="28.4259" y2="26.6223" gradientUnits="userSpaceOnUse">
        <stop stop-color="#FF7D3D"></stop>
        <stop offset="1" stop-color="#F99462" stop-opacity="0.71"></stop>
      </linearGradient>
      <linearGradient id="paint6_linear" x1="14.0144" y1="26.6165" x2="15.3107" y2="26.6223" gradientUnits="userSpaceOnUse">
        <stop stop-color="#FF7D3D"></stop>
        <stop offset="1" stop-color="#F99462" stop-opacity="0.71"></stop>
      </linearGradient>
      <linearGradient id="paint7_linear" x1="11.2984" y1="20.0589" x2="12.5947" y2="20.0647" gradientUnits="userSpaceOnUse">
        <stop stop-color="#FF7D3D"></stop>
        <stop offset="1" stop-color="#F99462" stop-opacity="0.71"></stop>
      </linearGradient>
      <linearGradient id="paint8_linear" x1="29.8455" y1="20.0589" x2="31.1418" y2="20.0647" gradientUnits="userSpaceOnUse">
        <stop stop-color="#FF7D3D"></stop>
        <stop offset="1" stop-color="#F99462" stop-opacity="0.71"></stop>
      </linearGradient>
      <linearGradient id="paint9_linear" x1="-7.12053e-09" y1="24.3235" x2="1.29629" y2="24.3293" gradientUnits="userSpaceOnUse">
        <stop stop-color="#FF7D3D"></stop>
        <stop offset="1" stop-color="#F99462" stop-opacity="0.71"></stop>
      </linearGradient>
      <linearGradient id="paint10_linear" x1="23.2045" y1="14.0773" x2="30.607" y2="14.1104" gradientUnits="userSpaceOnUse">
        <stop stop-color="#FF7D3D"></stop>
        <stop offset="1" stop-color="#F99462" stop-opacity="0.71"></stop>
      </linearGradient>
      <linearGradient id="paint11_linear" x1="14" y1="12.6" x2="39.4118" y2="12.7093" gradientUnits="userSpaceOnUse">
        <stop stop-color="#F99462"></stop>
        <stop offset="1" stop-color="#F99462" stop-opacity="0.65"></stop>
      </linearGradient>
      <clipPath id="clip0">
        <rect width="34" height="34" fill="white"></rect>
      </clipPath>
    </defs>
  </symbol>
</svg>