<svg width="0" height="0" class="hidden">
  <symbol fill="none" xmlns="http://www.w3.org/2000/svg" viewBox="0 0 120 40" id="app_store">
    <path d="M0 10.5C0 7.23841 0 5.60761 0.532843 4.32122C1.2433 2.60602 2.60602 1.2433 4.32122 0.532843C5.60761 0 7.23841 0 10.5 0H109.5C112.762 0 114.392 0 115.679 0.532843C117.394 1.2433 118.757 2.60602 119.467 4.32122C120 5.60761 120 7.23841 120 10.5V29.5C120 32.7616 120 34.3924 119.467 35.6788C118.757 37.394 117.394 38.7567 115.679 39.4672C114.392 40 112.762 40 109.5 40H10.5C7.23841 40 5.60761 40 4.32122 39.4672C2.60602 38.7567 1.2433 37.394 0.532843 35.6788C0 34.3924 0 32.7616 0 29.5V10.5Z" fill="#0C0D10"></path>
    <path d="M81.5259 19.201V21.492H80.0898V22.9944H81.5259V28.0994C81.5259 29.8426 82.3144 30.5398 84.2983 30.5398C84.647 30.5398 84.979 30.4983 85.2695 30.4485V28.9627C85.0205 28.9876 84.8628 29.0042 84.5889 29.0042C83.7007 29.0042 83.3105 28.5892 83.3105 27.6429V22.9944H85.2695V21.492H83.3105V19.201H81.5259Z" fill="white"></path>
    <path d="M90.3234 30.6644C92.963 30.6644 94.5817 28.8963 94.5817 25.9661C94.5817 23.0525 92.9547 21.2762 90.3234 21.2762C87.6837 21.2762 86.0568 23.0525 86.0568 25.9661C86.0568 28.8963 87.6754 30.6644 90.3234 30.6644ZM90.3234 29.0789C88.7711 29.0789 87.8995 27.9417 87.8995 25.9661C87.8995 24.0071 88.7711 22.8616 90.3234 22.8616C91.8673 22.8616 92.7472 24.0071 92.7472 25.9661C92.7472 27.9334 91.8673 29.0789 90.3234 29.0789Z" fill="white"></path>
    <path d="M95.9666 30.49H97.7512V25.1526C97.7512 23.8826 98.7058 23.0276 100.059 23.0276C100.374 23.0276 100.906 23.0857 101.055 23.1356V21.3758C100.864 21.326 100.524 21.3011 100.258 21.3011C99.0794 21.3011 98.075 21.9485 97.8176 22.8367H97.6848V21.4505H95.9666V30.49Z" fill="white"></path>
    <path d="M105.486 22.7952C106.806 22.7952 107.669 23.7166 107.711 25.136H103.145C103.245 23.7249 104.166 22.7952 105.486 22.7952ZM107.703 28.0496C107.371 28.7552 106.632 29.1453 105.553 29.1453C104.125 29.1453 103.204 28.1409 103.145 26.5555V26.4559H109.529V25.8333C109.529 22.9944 108.01 21.2762 105.495 21.2762C102.946 21.2762 101.328 23.1107 101.328 25.9993C101.328 28.888 102.913 30.6644 105.503 30.6644C107.57 30.6644 109.014 29.6683 109.421 28.0496H107.703Z" fill="white"></path>
    <path d="M69.8223 27.1519C69.9599 29.3716 71.8097 30.7912 74.5628 30.7912C77.5052 30.7912 79.3464 29.3028 79.3464 26.9282C79.3464 25.0612 78.2967 24.0288 75.7501 23.4352L74.3821 23.0996C72.7647 22.7211 72.1108 22.2135 72.1108 21.3273C72.1108 20.2088 73.126 19.4775 74.6489 19.4775C76.0942 19.4775 77.0923 20.1916 77.2729 21.3359H79.1485C79.0366 19.2452 77.1955 17.774 74.6747 17.774C71.9646 17.774 70.1578 19.2452 70.1578 21.4564C70.1578 23.2803 71.1816 24.3643 73.4272 24.8892L75.0274 25.2763C76.6707 25.6635 77.3934 26.2313 77.3934 27.1777C77.3934 28.2789 76.2577 29.0791 74.7091 29.0791C73.0486 29.0791 71.8957 28.3306 71.7323 27.1519H69.8223Z" fill="white"></path>
    <path d="M51.3349 21.3011C50.1064 21.3011 49.0439 21.9153 48.4961 22.9446H48.3633V21.4505H46.645V33.4949H48.4297V29.1204H48.5708C49.0439 30.075 50.0649 30.6395 51.3516 30.6395C53.6343 30.6395 55.0869 28.8382 55.0869 25.9661C55.0869 23.094 53.6343 21.3011 51.3349 21.3011ZM50.8286 29.0374C49.3345 29.0374 48.3965 27.8587 48.3965 25.9744C48.3965 24.0818 49.3345 22.9031 50.8369 22.9031C52.3476 22.9031 53.2524 24.0569 53.2524 25.9661C53.2524 27.8836 52.3476 29.0374 50.8286 29.0374Z" fill="white"></path>
    <path d="M61.3317 21.3011C60.1032 21.3011 59.0407 21.9153 58.4929 22.9446H58.3601V21.4505H56.6418V33.4949H58.4265V29.1204H58.5676C59.0407 30.075 60.0617 30.6395 61.3483 30.6395C63.6311 30.6395 65.0837 28.8382 65.0837 25.9661C65.0837 23.094 63.6311 21.3011 61.3317 21.3011ZM60.8254 29.0374C59.3313 29.0374 58.3933 27.8587 58.3933 25.9744C58.3933 24.0818 59.3313 22.9031 60.8337 22.9031C62.3444 22.9031 63.2492 24.0569 63.2492 25.9661C63.2492 27.8836 62.3444 29.0374 60.8254 29.0374Z" fill="white"></path>
    <path d="M43.443 30.49H45.4906L41.0082 18.0752H38.9348L34.4523 30.49H36.4311L37.5754 27.1949H42.3073L43.443 30.49ZM39.8725 20.3293H40.0188L41.8169 25.5774H38.0658L39.8725 20.3293Z" fill="white"></path>
    <path d="M35.6511 8.71094V14.7H37.8135C39.5981 14.7 40.6316 13.6001 40.6316 11.6868C40.6316 9.80249 39.5898 8.71094 37.8135 8.71094H35.6511ZM36.5808 9.55762H37.7097C38.9507 9.55762 39.6853 10.3462 39.6853 11.6992C39.6853 13.073 38.9631 13.8533 37.7097 13.8533H36.5808V9.55762Z" fill="white"></path>
    <path d="M43.7967 14.7871C45.1165 14.7871 45.9258 13.9031 45.9258 12.438C45.9258 10.9812 45.1124 10.093 43.7967 10.093C42.4769 10.093 41.6634 10.9812 41.6634 12.438C41.6634 13.9031 42.4727 14.7871 43.7967 14.7871ZM43.7967 13.9944C43.0206 13.9944 42.5848 13.4258 42.5848 12.438C42.5848 11.4585 43.0206 10.8857 43.7967 10.8857C44.5687 10.8857 45.0086 11.4585 45.0086 12.438C45.0086 13.4216 44.5687 13.9944 43.7967 13.9944Z" fill="white"></path>
    <path d="M52.818 10.1802H51.9256L51.1205 13.6292H51.0499L50.1202 10.1802H49.2652L48.3355 13.6292H48.2691L47.4598 10.1802H46.555L47.8001 14.7H48.7174L49.6471 11.3713H49.7176L50.6515 14.7H51.577L52.818 10.1802Z" fill="white"></path>
    <path d="M53.8456 14.7H54.7379V12.0562C54.7379 11.3506 55.1571 10.9106 55.817 10.9106C56.477 10.9106 56.7924 11.2717 56.7924 11.998V14.7H57.6847V11.7739C57.6847 10.699 57.1286 10.093 56.12 10.093C55.4394 10.093 54.9911 10.396 54.7711 10.8982H54.7047V10.1802H53.8456V14.7Z" fill="white"></path>
    <path d="M59.09 14.7H59.9824V8.41626H59.09V14.7Z" fill="white"></path>
    <path d="M63.3384 14.7871C64.6582 14.7871 65.4675 13.9031 65.4675 12.438C65.4675 10.9812 64.6541 10.093 63.3384 10.093C62.0186 10.093 61.2051 10.9812 61.2051 12.438C61.2051 13.9031 62.0144 14.7871 63.3384 14.7871ZM63.3384 13.9944C62.5623 13.9944 62.1265 13.4258 62.1265 12.438C62.1265 11.4585 62.5623 10.8857 63.3384 10.8857C64.1104 10.8857 64.5503 11.4585 64.5503 12.438C64.5503 13.4216 64.1104 13.9944 63.3384 13.9944Z" fill="white"></path>
    <path d="M68.1263 14.0234C67.6407 14.0234 67.2879 13.7869 67.2879 13.3801C67.2879 12.9817 67.5701 12.77 68.1927 12.7285L69.2967 12.658V13.0356C69.2967 13.5959 68.7986 14.0234 68.1263 14.0234ZM67.898 14.7747C68.4915 14.7747 68.9854 14.5173 69.2552 14.0649H69.3257V14.7H70.1849V11.6121C70.1849 10.6575 69.5457 10.093 68.4126 10.093C67.3875 10.093 66.657 10.5911 66.5657 11.3672H67.429C67.5286 11.0476 67.8731 10.865 68.3711 10.865C68.9812 10.865 69.2967 11.1348 69.2967 11.6121V12.0022L68.0723 12.0728C66.9974 12.1392 66.3914 12.6082 66.3914 13.4216C66.3914 14.2476 67.0264 14.7747 67.898 14.7747Z" fill="white"></path>
    <path d="M73.213 14.7747C73.8355 14.7747 74.3626 14.48 74.6324 13.9861H74.703V14.7H75.558V8.41626H74.6656V10.8982H74.5992C74.3543 10.4001 73.8314 10.1055 73.213 10.1055C72.0716 10.1055 71.337 11.0103 71.337 12.438C71.337 13.8699 72.0633 14.7747 73.213 14.7747ZM73.4662 10.9065C74.2132 10.9065 74.6822 11.5 74.6822 12.4421C74.6822 13.3884 74.2174 13.9736 73.4662 13.9736C72.7108 13.9736 72.2584 13.3967 72.2584 12.438C72.2584 11.4875 72.7149 10.9065 73.4662 10.9065Z" fill="white"></path>
    <path d="M81.3444 14.7871C82.6643 14.7871 83.4736 13.9031 83.4736 12.438C83.4736 10.9812 82.6601 10.093 81.3444 10.093C80.0246 10.093 79.2111 10.9812 79.2111 12.438C79.2111 13.9031 80.0205 14.7871 81.3444 14.7871ZM81.3444 13.9944C80.5683 13.9944 80.1325 13.4258 80.1325 12.438C80.1325 11.4585 80.5683 10.8857 81.3444 10.8857C82.1164 10.8857 82.5563 11.4585 82.5563 12.438C82.5563 13.4216 82.1164 13.9944 81.3444 13.9944Z" fill="white"></path>
    <path d="M84.6548 14.7H85.5471V12.0562C85.5471 11.3506 85.9663 10.9106 86.6262 10.9106C87.2861 10.9106 87.6016 11.2717 87.6016 11.998V14.7H88.4939V11.7739C88.4939 10.699 87.9377 10.093 86.9292 10.093C86.2485 10.093 85.8003 10.396 85.5803 10.8982H85.5139V10.1802H84.6548V14.7Z" fill="white"></path>
    <path d="M92.6036 9.05542V10.2009H91.8856V10.9521H92.6036V13.5046C92.6036 14.3762 92.9979 14.7249 93.9898 14.7249C94.1642 14.7249 94.3302 14.7041 94.4754 14.6792V13.9363C94.3509 13.9487 94.2721 13.957 94.1351 13.957C93.691 13.957 93.4959 13.7495 93.4959 13.2764V10.9521H94.4754V10.2009H93.4959V9.05542H92.6036Z" fill="white"></path>
    <path d="M95.6732 14.7H96.5656V12.0603C96.5656 11.3755 96.9723 10.9148 97.7028 10.9148C98.3336 10.9148 98.6698 11.28 98.6698 12.0022V14.7H99.5622V11.7822C99.5622 10.7073 98.9687 10.0972 98.0058 10.0972C97.3251 10.0972 96.8478 10.4001 96.6278 10.9065H96.5573V8.41626H95.6732V14.7Z" fill="white"></path>
    <path d="M102.781 10.8525C103.441 10.8525 103.873 11.3132 103.894 12.0229H101.611C101.661 11.3174 102.121 10.8525 102.781 10.8525ZM103.889 13.4797C103.723 13.8325 103.354 14.0276 102.814 14.0276C102.101 14.0276 101.64 13.5254 101.611 12.7327V12.6829H104.802V12.3716C104.802 10.9521 104.043 10.093 102.785 10.093C101.511 10.093 100.702 11.0103 100.702 12.4546C100.702 13.8989 101.495 14.7871 102.789 14.7871C103.823 14.7871 104.545 14.2891 104.748 13.4797H103.889Z" fill="white"></path>
    <path d="M24.769 20.3008C24.7907 18.6198 25.6934 17.0292 27.1256 16.1488C26.2221 14.8584 24.7088 14.0403 23.1344 13.9911C21.4552 13.8148 19.8272 14.9959 18.9715 14.9959C18.0992 14.9959 16.7817 14.0086 15.363 14.0378C13.5137 14.0975 11.7898 15.1489 10.8901 16.7656C8.95607 20.1141 10.3987 25.0351 12.2513 27.7417C13.1782 29.0671 14.2615 30.5475 15.6789 30.495C17.066 30.4375 17.584 29.6105 19.2583 29.6105C20.9171 29.6105 21.4031 30.495 22.8493 30.4616C24.3377 30.4375 25.2754 29.1304 26.1698 27.7925C26.8358 26.8481 27.3483 25.8044 27.6882 24.7C25.9391 23.9602 24.771 22.2 24.769 20.3008Z" fill="white"></path>
    <path d="M22.0373 12.2111C22.8489 11.2369 23.2487 9.98469 23.1518 8.72046C21.912 8.85068 20.7668 9.44324 19.9443 10.3801C19.14 11.2954 18.7214 12.5255 18.8006 13.7415C20.0408 13.7542 21.2601 13.1777 22.0373 12.2111Z" fill="white"></path>
    <path d="M4.32122 39.4672L3.93853 40.391L4.32122 39.4672ZM119.467 35.6788L120.391 36.0615L119.467 35.6788ZM115.679 39.4672L116.061 40.391L115.679 39.4672ZM115.679 0.532843L116.061 -0.391036L115.679 0.532843ZM119.467 4.32122L120.391 3.93853L119.467 4.32122ZM10.5 1H109.5V-1H10.5V1ZM119 10.5V29.5H121V10.5H119ZM109.5 39H10.5V41H109.5V39ZM1 29.5V10.5H-1V29.5H1ZM10.5 39C8.85552 39 7.67224 38.9995 6.73798 38.9357C5.8127 38.8726 5.20494 38.7508 4.7039 38.5433L3.93853 40.391C4.72389 40.7163 5.57473 40.861 6.60184 40.9311C7.61997 41.0005 8.88288 41 10.5 41V39ZM-1 29.5C-1 31.1171 -1.00054 32.38 -0.931075 33.3982C-0.860996 34.4253 -0.716341 35.2761 -0.391036 36.0615L1.45672 35.2961C1.24918 34.7951 1.12742 34.1873 1.06429 33.262C1.00054 32.3278 1 31.1445 1 29.5H-1ZM4.7039 38.5433C3.23373 37.9343 2.06569 36.7663 1.45672 35.2961L-0.391036 36.0615C0.420915 38.0217 1.97831 39.5791 3.93853 40.391L4.7039 38.5433ZM119 29.5C119 31.1445 118.999 32.3278 118.936 33.262C118.873 34.1873 118.751 34.7951 118.543 35.2961L120.391 36.0615C120.716 35.2761 120.861 34.4253 120.931 33.3982C121.001 32.38 121 31.1171 121 29.5H119ZM109.5 41C111.117 41 112.38 41.0005 113.398 40.9311C114.425 40.861 115.276 40.7163 116.061 40.391L115.296 38.5433C114.795 38.7508 114.187 38.8726 113.262 38.9357C112.328 38.9995 111.144 39 109.5 39V41ZM118.543 35.2961C117.934 36.7663 116.766 37.9343 115.296 38.5433L116.061 40.391C118.022 39.5791 119.579 38.0217 120.391 36.0615L118.543 35.2961ZM109.5 1C111.144 1 112.328 1.00054 113.262 1.06429C114.187 1.12742 114.795 1.24918 115.296 1.45672L116.061 -0.391036C115.276 -0.716341 114.425 -0.860996 113.398 -0.931075C112.38 -1.00054 111.117 -1 109.5 -1V1ZM121 10.5C121 8.88289 121.001 7.61997 120.931 6.60184C120.861 5.57473 120.716 4.72389 120.391 3.93853L118.543 4.7039C118.751 5.20494 118.873 5.8127 118.936 6.73798C118.999 7.67225 119 8.85552 119 10.5H121ZM115.296 1.45672C116.766 2.06569 117.934 3.23373 118.543 4.7039L120.391 3.93853C119.579 1.97831 118.022 0.420915 116.061 -0.391036L115.296 1.45672ZM10.5 -1C8.88289 -1 7.61997 -1.00054 6.60184 -0.931075C5.57473 -0.860996 4.72389 -0.716341 3.93853 -0.391036L4.7039 1.45672C5.20494 1.24918 5.8127 1.12742 6.73798 1.06429C7.67225 1.00054 8.85552 1 10.5 1V-1ZM1 10.5C1 8.85552 1.00054 7.67225 1.06429 6.73798C1.12742 5.8127 1.24918 5.20494 1.45672 4.7039L-0.391036 3.93853C-0.716341 4.72389 -0.860996 5.57473 -0.931075 6.60184C-1.00054 7.61997 -1 8.88289 -1 10.5H1ZM3.93853 -0.391036C1.97831 0.420915 0.420915 1.97831 -0.391036 3.93853L1.45672 4.7039C2.06569 3.23373 3.23373 2.06569 4.7039 1.45672L3.93853 -0.391036Z" fill="#A6A6A6"></path>
  </symbol>
  <symbol fill="none" xmlns="http://www.w3.org/2000/svg" viewBox="0 0 135 40" id="google_play">
    <path d="M0 5C0 2.23858 2.23858 0 5 0H130C132.761 0 135 2.23858 135 5V35C135 37.7614 132.761 40 130 40H5C2.23857 40 0 37.7614 0 35V5Z" fill="black"></path>
    <path d="M68.136 21.7511C65.784 21.7511 63.867 23.5401 63.867 26.0041C63.867 28.4531 65.784 30.2571 68.136 30.2571C70.489 30.2571 72.406 28.4531 72.406 26.0041C72.405 23.5401 70.488 21.7511 68.136 21.7511ZM68.136 28.5831C66.847 28.5831 65.736 27.5201 65.736 26.0051C65.736 24.4741 66.848 23.4271 68.136 23.4271C69.425 23.4271 70.536 24.4741 70.536 26.0051C70.536 27.5191 69.425 28.5831 68.136 28.5831ZM58.822 21.7511C56.47 21.7511 54.553 23.5401 54.553 26.0041C54.553 28.4531 56.47 30.2571 58.822 30.2571C61.175 30.2571 63.092 28.4531 63.092 26.0041C63.092 23.5401 61.175 21.7511 58.822 21.7511ZM58.822 28.5831C57.533 28.5831 56.422 27.5201 56.422 26.0051C56.422 24.4741 57.534 23.4271 58.822 23.4271C60.111 23.4271 61.222 24.4741 61.222 26.0051C61.223 27.5191 60.111 28.5831 58.822 28.5831ZM47.744 23.0571V24.8611H52.062C51.933 25.8761 51.595 26.6171 51.079 27.1321C50.451 27.7601 49.468 28.4531 47.744 28.4531C45.086 28.4531 43.008 26.3101 43.008 23.6521C43.008 20.9941 45.086 18.8511 47.744 18.8511C49.178 18.8511 50.225 19.4151 50.998 20.1401L52.271 18.8671C51.191 17.8361 49.758 17.0471 47.744 17.0471C44.103 17.0471 41.042 20.0111 41.042 23.6521C41.042 27.2931 44.103 30.2571 47.744 30.2571C49.709 30.2571 51.192 29.6121 52.351 28.4041C53.543 27.2121 53.914 25.5361 53.914 24.1831C53.914 23.7651 53.882 23.3781 53.817 23.0561H47.744V23.0571ZM93.052 24.4581C92.698 23.5081 91.618 21.7511 89.411 21.7511C87.22 21.7511 85.399 23.4751 85.399 26.0041C85.399 28.3881 87.204 30.2571 89.62 30.2571C91.569 30.2571 92.697 29.0651 93.165 28.3721L91.715 27.4051C91.232 28.1141 90.571 28.5811 89.62 28.5811C88.67 28.5811 87.993 28.1461 87.558 27.2921L93.245 24.9401L93.052 24.4581ZM87.252 25.8761C87.204 24.2321 88.525 23.3951 89.476 23.3951C90.217 23.3951 90.845 23.7661 91.055 24.2971L87.252 25.8761ZM82.629 30.0001H84.497V17.4991H82.629V30.0001ZM79.567 22.7021H79.503C79.084 22.2021 78.278 21.7511 77.264 21.7511C75.137 21.7511 73.188 23.6201 73.188 26.0211C73.188 28.4051 75.137 30.2581 77.264 30.2581C78.279 30.2581 79.084 29.8071 79.503 29.2921H79.567V29.9041C79.567 31.5311 78.697 32.4011 77.296 32.4011C76.152 32.4011 75.443 31.5801 75.153 30.8871L73.526 31.5641C73.993 32.6911 75.233 34.0771 77.296 34.0771C79.487 34.0771 81.34 32.7881 81.34 29.6461V22.0101H79.568V22.7021H79.567ZM77.425 28.5831C76.136 28.5831 75.057 27.5031 75.057 26.0211C75.057 24.5221 76.136 23.4271 77.425 23.4271C78.697 23.4271 79.696 24.5221 79.696 26.0211C79.696 27.5031 78.697 28.5831 77.425 28.5831ZM101.806 17.4991H97.335V30.0001H99.2V25.2641H101.805C103.873 25.2641 105.907 23.7671 105.907 21.3821C105.907 18.9971 103.874 17.4991 101.806 17.4991ZM101.854 23.5241H99.2V19.2391H101.854C103.249 19.2391 104.041 20.3941 104.041 21.3821C104.041 22.3501 103.249 23.5241 101.854 23.5241ZM113.386 21.7291C112.035 21.7291 110.636 22.3241 110.057 23.6431L111.713 24.3341C112.067 23.6431 112.727 23.4171 113.418 23.4171C114.383 23.4171 115.364 23.9961 115.38 25.0251V25.1541C115.042 24.9611 114.318 24.6721 113.434 24.6721C111.649 24.6721 109.831 25.6531 109.831 27.4861C109.831 29.1591 111.295 30.2361 112.935 30.2361C114.189 30.2361 114.881 29.6731 115.315 29.0131H115.379V29.9781H117.181V25.1851C117.182 22.9671 115.524 21.7291 113.386 21.7291ZM113.16 28.5801C112.55 28.5801 111.697 28.2741 111.697 27.5181C111.697 26.5531 112.759 26.1831 113.676 26.1831C114.495 26.1831 114.882 26.3601 115.38 26.6011C115.235 27.7601 114.238 28.5801 113.16 28.5801ZM123.743 22.0021L121.604 27.4221H121.54L119.32 22.0021H117.31L120.639 29.5771L118.741 33.7911H120.687L125.818 22.0021H123.743ZM106.937 30.0001H108.802V17.4991H106.937V30.0001Z" fill="white"></path>
    <path d="M47.418 10.2429C47.418 11.0809 47.1701 11.7479 46.673 12.2459C46.109 12.8379 45.3731 13.1339 44.4691 13.1339C43.6031 13.1339 42.8661 12.8339 42.2611 12.2339C41.6551 11.6329 41.3521 10.8889 41.3521 10.0009C41.3521 9.11194 41.6551 8.36794 42.2611 7.76794C42.8661 7.16694 43.6031 6.86694 44.4691 6.86694C44.8991 6.86694 45.3101 6.95094 45.7001 7.11794C46.0911 7.28594 46.404 7.50894 46.6381 7.78794L46.111 8.31594C45.714 7.84094 45.167 7.60394 44.468 7.60394C43.836 7.60394 43.29 7.82594 42.829 8.26994C42.368 8.71394 42.1381 9.29094 42.1381 9.99994C42.1381 10.7089 42.368 11.2859 42.829 11.7299C43.29 12.1739 43.836 12.3959 44.468 12.3959C45.138 12.3959 45.6971 12.1729 46.1441 11.7259C46.4341 11.4349 46.602 11.0299 46.647 10.5109H44.468V9.78994H47.375C47.405 9.94694 47.418 10.0979 47.418 10.2429Z" fill="white"></path>
    <path d="M52.0281 7.737H49.2961V9.639H51.7601V10.36H49.2961V12.262H52.0281V13H48.5251V7H52.0281V7.737Z" fill="white"></path>
    <path d="M55.279 13H54.508V7.737H52.832V7H56.955V7.737H55.279V13Z" fill="white"></path>
    <path d="M59.938 13V7H60.709V13H59.938Z" fill="white"></path>
    <path d="M64.1281 13H63.3572V7.737H61.6812V7H65.8042V7.737H64.1281V13Z" fill="white"></path>
    <path d="M73.6089 12.225C73.0189 12.831 72.2859 13.134 71.4089 13.134C70.5319 13.134 69.7989 12.831 69.2099 12.225C68.6199 11.619 68.3259 10.877 68.3259 9.99999C68.3259 9.12299 68.6199 8.38099 69.2099 7.77499C69.7989 7.16899 70.5319 6.86499 71.4089 6.86499C72.2809 6.86499 73.0129 7.16999 73.6049 7.77899C74.1969 8.38799 74.4929 9.12799 74.4929 9.99999C74.4929 10.877 74.1979 11.619 73.6089 12.225ZM69.7789 11.722C70.2229 12.172 70.7659 12.396 71.4089 12.396C72.0519 12.396 72.5959 12.171 73.0389 11.722C73.4829 11.272 73.7059 10.698 73.7059 9.99999C73.7059 9.30199 73.4829 8.72799 73.0389 8.27799C72.5959 7.82799 72.0519 7.60399 71.4089 7.60399C70.7659 7.60399 70.2229 7.82899 69.7789 8.27799C69.3359 8.72799 69.1129 9.30199 69.1129 9.99999C69.1129 10.698 69.3359 11.272 69.7789 11.722Z" fill="white"></path>
    <path d="M75.5749 13V7H76.513L79.429 11.667H79.4619L79.429 10.511V7H80.1999V13H79.3949L76.344 8.106H76.3109L76.344 9.262V13H75.5749Z" fill="white"></path>
    <path d="M47.418 10.2429C47.418 11.0809 47.1701 11.7479 46.673 12.2459C46.109 12.8379 45.3731 13.1339 44.4691 13.1339C43.6031 13.1339 42.8661 12.8339 42.2611 12.2339C41.6551 11.6329 41.3521 10.8889 41.3521 10.0009C41.3521 9.11194 41.6551 8.36794 42.2611 7.76794C42.8661 7.16694 43.6031 6.86694 44.4691 6.86694C44.8991 6.86694 45.3101 6.95094 45.7001 7.11794C46.0911 7.28594 46.404 7.50894 46.6381 7.78794L46.111 8.31594C45.714 7.84094 45.167 7.60394 44.468 7.60394C43.836 7.60394 43.29 7.82594 42.829 8.26994C42.368 8.71394 42.1381 9.29094 42.1381 9.99994C42.1381 10.7089 42.368 11.2859 42.829 11.7299C43.29 12.1739 43.836 12.3959 44.468 12.3959C45.138 12.3959 45.6971 12.1729 46.1441 11.7259C46.4341 11.4349 46.602 11.0299 46.647 10.5109H44.468V9.78994H47.375C47.405 9.94694 47.418 10.0979 47.418 10.2429Z" stroke="white" stroke-width="0.2" stroke-miterlimit="10"></path>
    <path d="M52.0281 7.737H49.2961V9.639H51.7601V10.36H49.2961V12.262H52.0281V13H48.5251V7H52.0281V7.737Z" stroke="white" stroke-width="0.2" stroke-miterlimit="10"></path>
    <path d="M55.279 13H54.508V7.737H52.832V7H56.955V7.737H55.279V13Z" stroke="white" stroke-width="0.2" stroke-miterlimit="10"></path>
    <path d="M59.938 13V7H60.709V13H59.938Z" stroke="white" stroke-width="0.2" stroke-miterlimit="10"></path>
    <path d="M64.1281 13H63.3572V7.737H61.6812V7H65.8042V7.737H64.1281V13Z" stroke="white" stroke-width="0.2" stroke-miterlimit="10"></path>
    <path d="M73.6089 12.225C73.0189 12.831 72.2859 13.134 71.4089 13.134C70.5319 13.134 69.7989 12.831 69.2099 12.225C68.6199 11.619 68.3259 10.877 68.3259 9.99999C68.3259 9.12299 68.6199 8.38099 69.2099 7.77499C69.7989 7.16899 70.5319 6.86499 71.4089 6.86499C72.2809 6.86499 73.0129 7.16999 73.6049 7.77899C74.1969 8.38799 74.4929 9.12799 74.4929 9.99999C74.4929 10.877 74.1979 11.619 73.6089 12.225ZM69.7789 11.722C70.2229 12.172 70.7659 12.396 71.4089 12.396C72.0519 12.396 72.5959 12.171 73.0389 11.722C73.4829 11.272 73.7059 10.698 73.7059 9.99999C73.7059 9.30199 73.4829 8.72799 73.0389 8.27799C72.5959 7.82799 72.0519 7.60399 71.4089 7.60399C70.7659 7.60399 70.2229 7.82899 69.7789 8.27799C69.3359 8.72799 69.1129 9.30199 69.1129 9.99999C69.1129 10.698 69.3359 11.272 69.7789 11.722Z" stroke="white" stroke-width="0.2" stroke-miterlimit="10"></path>
    <path d="M75.5749 13V7H76.513L79.429 11.667H79.4619L79.429 10.511V7H80.1999V13H79.3949L76.344 8.106H76.3109L76.344 9.262V13H75.5749Z" stroke="white" stroke-width="0.2" stroke-miterlimit="10"></path>
    <g filter="url(#filter0_ii)">
      <path d="M10.436 7.53797C10.145 7.84597 9.97299 8.32397 9.97299 8.94297V31.059C9.97299 31.679 10.145 32.156 10.436 32.464L10.51 32.536L22.899 20.147V20.001V19.855L10.51 7.46497L10.436 7.53797Z" fill="url(#paint0_linear)"></path>
      <path d="M27.028 24.278L22.899 20.147V20.001V19.855L27.029 15.725L27.122 15.778L32.015 18.558C33.412 19.352 33.412 20.651 32.015 21.446L27.122 24.226L27.028 24.278Z" fill="url(#paint1_linear)"></path>
      <g filter="url(#filter1_i)">
        <path d="M27.122 24.225L22.898 20.001L10.436 32.464C10.896 32.952 11.657 33.012 12.514 32.526L27.122 24.225Z" fill="url(#paint2_linear)"></path>
      </g>
      <path d="M27.122 15.7769L12.514 7.47694C11.657 6.98994 10.896 7.05094 10.436 7.53894L22.899 20.0019L27.122 15.7769Z" fill="url(#paint3_linear)"></path>
    </g>
    <path d="M5 1H130V-1H5V1ZM134 5V35H136V5H134ZM130 39H5V41H130V39ZM1 35V5H-1V35H1ZM5 39C2.79086 39 1 37.2091 1 35H-1C-1 38.3137 1.68629 41 5 41V39ZM134 35C134 37.2091 132.209 39 130 39V41C133.314 41 136 38.3137 136 35H134ZM130 1C132.209 1 134 2.79086 134 5H136C136 1.68629 133.314 -1 130 -1V1ZM5 -1C1.68629 -1 -1 1.68629 -1 5H1C1 2.79086 2.79086 1 5 1V-1Z" fill="#A6A6A6"></path>
    <defs>
      <filter id="filter0_ii" x="9.97299" y="7.14087" width="23.0898" height="25.7208" filterUnits="userSpaceOnUse" color-interpolation-filters="sRGB">
        <feFlood flood-opacity="0" result="BackgroundImageFix"></feFlood>
        <feBlend mode="normal" in="SourceGraphic" in2="BackgroundImageFix" result="shape"></feBlend>
        <feColorMatrix in="SourceAlpha" type="matrix" values="0 0 0 0 0 0 0 0 0 0 0 0 0 0 0 0 0 0 127 0" result="hardAlpha"></feColorMatrix>
        <feOffset dy="-0.15"></feOffset>
        <feComposite in2="hardAlpha" operator="arithmetic" k2="-1" k3="1"></feComposite>
        <feColorMatrix type="matrix" values="0 0 0 0 0 0 0 0 0 0 0 0 0 0 0 0 0 0 0.12 0"></feColorMatrix>
        <feBlend mode="normal" in2="shape" result="effect1_innerShadow"></feBlend>
        <feColorMatrix in="SourceAlpha" type="matrix" values="0 0 0 0 0 0 0 0 0 0 0 0 0 0 0 0 0 0 127 0" result="hardAlpha"></feColorMatrix>
        <feOffset dy="0.15"></feOffset>
        <feComposite in2="hardAlpha" operator="arithmetic" k2="-1" k3="1"></feComposite>
        <feColorMatrix type="matrix" values="0 0 0 0 1 0 0 0 0 1 0 0 0 0 1 0 0 0 0.25 0"></feColorMatrix>
        <feBlend mode="normal" in2="effect1_innerShadow" result="effect2_innerShadow"></feBlend>
      </filter>
      <filter id="filter1_i" x="10.436" y="20.001" width="16.686" height="12.8607" filterUnits="userSpaceOnUse" color-interpolation-filters="sRGB">
        <feFlood flood-opacity="0" result="BackgroundImageFix"></feFlood>
        <feBlend mode="normal" in="SourceGraphic" in2="BackgroundImageFix" result="shape"></feBlend>
        <feColorMatrix in="SourceAlpha" type="matrix" values="0 0 0 0 0 0 0 0 0 0 0 0 0 0 0 0 0 0 127 0" result="hardAlpha"></feColorMatrix>
        <feOffset dy="-0.15"></feOffset>
        <feComposite in2="hardAlpha" operator="arithmetic" k2="-1" k3="1"></feComposite>
        <feColorMatrix type="matrix" values="0 0 0 0 0 0 0 0 0 0 0 0 0 0 0 0 0 0 0.08 0"></feColorMatrix>
        <feBlend mode="normal" in2="shape" result="effect1_innerShadow"></feBlend>
      </filter>
      <linearGradient id="paint0_linear" x1="21.8008" y1="8.70897" x2="5.01879" y2="25.491" gradientUnits="userSpaceOnUse">
        <stop stop-color="#00A0FF"></stop>
        <stop offset="0.0066" stop-color="#00A1FF"></stop>
        <stop offset="0.2601" stop-color="#00BEFF"></stop>
        <stop offset="0.5122" stop-color="#00D2FF"></stop>
        <stop offset="0.7604" stop-color="#00DFFF"></stop>
        <stop offset="1" stop-color="#00E3FF"></stop>
      </linearGradient>
      <linearGradient id="paint1_linear" x1="33.8335" y1="20.001" x2="9.63759" y2="20.001" gradientUnits="userSpaceOnUse">
        <stop stop-color="#FFE000"></stop>
        <stop offset="0.4087" stop-color="#FFBD00"></stop>
        <stop offset="0.7754" stop-color="#FFA500"></stop>
        <stop offset="1" stop-color="#FF9C00"></stop>
      </linearGradient>
      <linearGradient id="paint2_linear" x1="24.8281" y1="22.2949" x2="2.06961" y2="45.0534" gradientUnits="userSpaceOnUse">
        <stop stop-color="#FF3A44"></stop>
        <stop offset="1" stop-color="#C31162"></stop>
      </linearGradient>
      <linearGradient id="paint3_linear" x1="7.2974" y1="0.176745" x2="17.4597" y2="10.339" gradientUnits="userSpaceOnUse">
        <stop stop-color="#32A071"></stop>
        <stop offset="0.0685" stop-color="#2DA771"></stop>
        <stop offset="0.4762" stop-color="#15CF74"></stop>
        <stop offset="0.8009" stop-color="#06E775"></stop>
        <stop offset="1" stop-color="#00F076"></stop>
      </linearGradient>
    </defs>
  </symbol>
</svg>