<svg width="0" height="0" class="hidden">
  <symbol fill="none" xmlns="http://www.w3.org/2000/svg" viewBox="0 0 32 32" id="arrow_left">
    <path d="M27 16H5" stroke="#7B7B7B" stroke-width="2" stroke-linecap="round" stroke-linejoin="round"></path>
    <path d="M14 7L5 16L14 25" stroke="#7B7B7B" stroke-width="2" stroke-linecap="round" stroke-linejoin="round"></path>
  </symbol>
  <symbol fill="none" xmlns="http://www.w3.org/2000/svg" viewBox="0 0 34 34" id="arrow_left_rd">
    <path d="M7.43094e-07 17C3.33327e-07 7.62563 7.62563 -3.33327e-07 17 -7.43094e-07C26.3744 -1.15286e-06 34 7.62563 34 17C34 26.3744 26.373 34 17 34C7.62696 34 1.15286e-06 26.3744 7.43094e-07 17ZM31.3664 17C31.3664 9.07939 24.9219 2.6336 17 2.6336C9.07807 2.63361 2.63361 9.07939 2.63361 17C2.63361 24.9219 9.07807 31.3664 17 31.3664C24.9219 31.3664 31.3664 24.9206 31.3664 17Z" fill="#D1D2DC"></path>
    <path d="M18.8171 24.5189L12.2331 17.9349C11.7222 17.4213 11.7222 16.5918 12.2331 16.0782L18.8171 9.49413C19.3096 9.07145 20.0378 9.07145 20.5303 9.49413C21.0821 9.96688 21.1465 10.7991 20.6738 11.3509L15.0247 17L20.6739 22.6622C21.1848 23.1758 21.1848 24.0054 20.6739 24.5189C20.1603 25.0299 19.3307 25.0299 18.8171 24.5189Z" fill="#D1D2DC"></path>
  </symbol>
  <symbol fill="none" xmlns="http://www.w3.org/2000/svg" viewBox="0 0 32 32" id="arrow_right">
    <path d="M5 16H27" stroke="#FF7A50" stroke-width="2" stroke-linecap="round" stroke-linejoin="round"></path>
    <path d="M18 7L27 16L18 25" stroke="#FF7A50" stroke-width="2" stroke-linecap="round" stroke-linejoin="round"></path>
  </symbol>
  <symbol fill="none" xmlns="http://www.w3.org/2000/svg" viewBox="0 0 34 34" id="arrow_right_rd">
    <path d="M34 17C34 7.62563 26.3744 -3.33327e-07 17 -7.43094e-07C7.62563 -1.15286e-06 -3.33327e-07 7.62563 -7.43094e-07 17C-1.15286e-06 26.3744 7.62696 34 17 34C26.373 34 34 26.3744 34 17ZM2.63361 17C2.63361 9.07939 9.07807 2.6336 17 2.6336C24.9219 2.63361 31.3664 9.07939 31.3664 17C31.3664 24.9219 24.9219 31.3664 17 31.3664C9.07806 31.3664 2.6336 24.9206 2.63361 17Z" fill="#FF7A50"></path>
    <path d="M15.1829 24.5189L21.7669 17.9349C22.2778 17.4213 22.2778 16.5918 21.7669 16.0782L15.1829 9.49413C14.6904 9.07145 13.9622 9.07145 13.4697 9.49413C12.9179 9.96688 12.8535 10.7991 13.3262 11.3509L18.9753 17L13.3261 22.6622C12.8152 23.1758 12.8152 24.0054 13.3261 24.5189C13.8397 25.0299 14.6693 25.0299 15.1829 24.5189Z" fill="#FF7A50"></path>
  </symbol>
</svg>