<svg width="0" height="0" class="hidden">
  <symbol fill="none" xmlns="http://www.w3.org/2000/svg" viewBox="0 0 21 20" id="buy">
    <path d="M1 1.17578L3.08 1.5316L4.04301 12.8715C4.12001 13.7976 4.90301 14.5082 5.84301 14.5053H16.752C17.649 14.5072 18.41 13.8549 18.537 12.9772L19.486 6.49532C19.592 5.77083 19.083 5.09872 18.351 4.99395C18.287 4.98505 3.414 4.98011 3.414 4.98011" stroke="#363853" stroke-width="1.5" stroke-linecap="round" stroke-linejoin="round"></path>
    <path d="M12.375 8.63337H15.1479" stroke="#363853" stroke-width="1.5" stroke-linecap="round" stroke-linejoin="round"></path>
    <path fill-rule="evenodd" clip-rule="evenodd" d="M5.4043 17.9316C5.70527 17.9316 5.94824 18.1729 5.94824 18.4696C5.94824 18.7673 5.70527 19.0085 5.4043 19.0085C5.10333 19.0085 4.86035 18.7673 4.86035 18.4696C4.86035 18.1729 5.10333 17.9316 5.4043 17.9316Z" fill="#363853" stroke="#363853" stroke-width="1.5" stroke-linecap="round" stroke-linejoin="round"></path>
    <path fill-rule="evenodd" clip-rule="evenodd" d="M16.6846 17.9316C16.9856 17.9316 17.2296 18.1729 17.2296 18.4696C17.2296 18.7673 16.9856 19.0085 16.6846 19.0085C16.3836 19.0085 16.1406 18.7673 16.1406 18.4696C16.1406 18.1729 16.3836 17.9316 16.6846 17.9316Z" fill="#363853" stroke="#363853" stroke-width="1.5" stroke-linecap="round" stroke-linejoin="round"></path>
  </symbol>
  <symbol fill="none" xmlns="http://www.w3.org/2000/svg" viewBox="0 0 20 22" id="clock">
    <path d="M10.5748 2.5401V1.58126C10.5748 1.41919 10.5104 1.26375 10.3958 1.14914C10.2812 1.03454 10.1257 0.970154 9.96367 0.970154C9.80159 0.970154 9.64615 1.03454 9.53155 1.14914C9.41694 1.26375 9.35256 1.41919 9.35256 1.58126V2.5456C4.55045 2.87926 0.744446 6.88968 0.744446 11.7752C0.744446 16.8777 4.89664 21.0299 10 21.0299C15.1034 21.0299 19.2556 16.8777 19.2556 11.7752C19.2556 6.86524 15.4114 2.83801 10.5748 2.5401ZM10 19.8077C5.57039 19.8077 1.96667 16.2039 1.96667 11.7752C1.96667 7.34588 5.57039 3.74246 10 3.74246C14.4297 3.74246 18.0334 7.34588 18.0334 11.7752C18.0334 16.2039 14.4297 19.8077 10 19.8077Z" fill="#363853"></path>
    <path d="M6.86293 17.3216C4.86796 16.1901 3.62863 14.0644 3.62863 11.7749C3.62863 11.6056 3.49204 11.4693 3.32307 11.4693C3.1541 11.4693 3.01752 11.6056 3.01752 11.7749C3.01752 14.2841 4.37571 16.6133 6.56166 17.8536C6.6322 17.8935 6.71572 17.9038 6.79386 17.8822C6.87199 17.8606 6.93833 17.8088 6.97828 17.7382C7.01823 17.6677 7.02852 17.5842 7.00689 17.506C6.98526 17.4279 6.93348 17.3616 6.86293 17.3216Z" fill="#363853"></path>
    <path d="M8.52923 18.1598C8.41091 18.1289 8.29343 18.0949 8.17693 18.0578C8.10021 18.0348 8.01754 18.0429 7.94672 18.0802C7.87589 18.1176 7.82257 18.1813 7.79822 18.2576C7.77387 18.3339 7.78044 18.4167 7.81653 18.4882C7.85261 18.5596 7.91531 18.6141 7.99115 18.6398C8.11826 18.6808 8.24598 18.7175 8.37646 18.7508C8.4549 18.771 8.53817 18.7593 8.60796 18.7181C8.67775 18.677 8.72835 18.6098 8.74862 18.5314C8.75868 18.4926 8.76098 18.4522 8.75539 18.4125C8.7498 18.3728 8.73643 18.3346 8.71605 18.3001C8.69567 18.2655 8.66868 18.2354 8.63662 18.2113C8.60456 18.1872 8.56807 18.1697 8.52923 18.1598Z" fill="#363853"></path>
    <path d="M17.8854 5.72794C18.0002 5.84236 18.1557 5.90652 18.3177 5.90629C18.4798 5.90606 18.6351 5.84146 18.7495 5.72671C18.864 5.61196 18.9281 5.45646 18.9279 5.2944C18.9277 5.13235 18.8631 4.97703 18.7483 4.8626L17.1616 3.27983C17.1048 3.22311 17.0374 3.17814 16.9632 3.1475C16.889 3.11686 16.8095 3.10114 16.7293 3.10126C16.649 3.10137 16.5695 3.11731 16.4955 3.14816C16.4214 3.17901 16.3541 3.22417 16.2975 3.28105C16.1831 3.39585 16.119 3.55134 16.1193 3.71336C16.1195 3.87538 16.184 4.03068 16.2987 4.14516L17.8854 5.72794Z" fill="#363853"></path>
    <path d="M10.5746 11.6612V6.77569C10.5746 6.61362 10.5102 6.45818 10.3956 6.34357C10.281 6.22897 10.1255 6.16458 9.96347 6.16458C9.80139 6.16458 9.64595 6.22897 9.53135 6.34357C9.41674 6.45818 9.35236 6.61362 9.35236 6.77569V11.9252C9.35236 12.0936 9.44005 12.254 9.56227 12.3692L11.3507 14.0406C11.4689 14.1518 11.6196 14.2074 11.7702 14.2074C11.8521 14.2075 11.933 14.1905 12.0079 14.1575C12.0828 14.1244 12.1499 14.0761 12.205 14.0155C12.4375 13.7699 12.4168 13.3833 12.1714 13.1517L10.5746 11.6612Z" fill="#363853"></path>
  </symbol>
  <symbol fill="none" xmlns="http://www.w3.org/2000/svg" viewBox="0 0 21 21" id="search">
    <ellipse cx="9.7666" cy="9.84078" rx="8.98856" ry="8.88424" stroke="#363853" stroke-width="1.5" stroke-linecap="round" stroke-linejoin="round"></ellipse>
    <path d="M16.0183 16.4814L19.5423 19.9555" stroke="#363853" stroke-width="1.5" stroke-linecap="round" stroke-linejoin="round"></path>
  </symbol>
</svg>